<svg width="1290" height="321" viewBox="0 0 1290 321" fill="none" xmlns="http://www.w3.org/2000/svg">
<path d="M-89.2853 100.291C-99.408 104.53 -103.253 114.923 -96.6365 120.856C-83.0245 133.065 -26.986 127.034 -24.3494 118.758C-21.752 110.605 -68.1628 91.4417 -89.2853 100.291Z" stroke="white" stroke-width="0.857966" stroke-miterlimit="10"/>
<path d="M-64.2029 73.1359C-41.0808 65.0343 -2.25647 122.716 -18.2822 136.334C-28.1353 144.708 -51.9876 143.661 -71.439 140.909C-89.6994 138.326 -115.791 127.764 -122.229 110.223C-125.637 100.911 -123.591 87.6433 -116.372 82.997C-110.785 79.402 -103.243 81.0194 -101.579 80.4215C-93.6471 83.7126 -92.4831 84.9918 -86.1635 85.7637C-77.9031 86.7734 -70.5617 75.3635 -64.2029 73.1359Z" stroke="white" stroke-width="0.857966" stroke-miterlimit="10"/>
<path d="M-40.7427 44.7655C-13.8886 49.054 15.2934 133.305 -13.8371 152.694C-32.3892 165.043 -64.7322 159.59 -87.276 153.062C-107.984 147.065 -142.467 127.054 -149.443 98.3744C-153.498 81.7105 -148.571 58.2682 -134.451 51.4874C-123.197 46.0839 -108.695 50.7302 -106.142 51.088C-91.0496 59.2092 -89.8293 63.3409 -78.5917 66.1223C-63.7128 69.8006 -51.9656 42.9643 -40.7427 44.7655Z" stroke="white" stroke-width="0.857966" stroke-miterlimit="10"/>
<path d="M-18.983 16.5838C10.667 24.4894 31.1426 144.014 -11.0927 169.24C-38.3511 185.52 -79.1945 175.754 -104.814 165.4C-127.99 156.037 -170.717 126.571 -178.358 86.7121C-182.967 62.6744 -175.275 29.1087 -154.233 20.1641C-137.326 12.9741 -115.733 20.3528 -112.41 21.9408C-89.1799 33.0493 -88.8859 41.8763 -72.7132 46.6672C-51.2304 53.0485 -34.5113 12.4521 -18.983 16.5838Z" stroke="white" stroke-width="0.857966" stroke-miterlimit="10"/>
<path d="M1.46815 -10.3162C34.3037 1.08877 45.6295 155.885 -9.65674 187.071C-45.6582 207.197 -94.985 193.227 -123.657 179.026C-149.328 166.314 -200.247 127.397 -208.591 76.3315C-213.72 44.942 -203.298 1.24071 -175.332 -9.88248C-152.761 -18.8516 -124.248 -8.33127 -119.991 -5.93215C-90.0474 10.9475 -89.2731 21.73 -68.1701 28.4961C-40.0786 37.5804 -18.1866 -17.1411 1.46815 -10.3162Z" stroke="white" stroke-width="0.857966" stroke-miterlimit="10"/>
<path d="M-197.348 -39.5713C-169.125 -50.3171 -133.709 -36.6698 -128.492 -33.4448C-91.9146 -10.8308 -90.562 1.86071 -64.5362 10.6657C-29.831 22.4064 -2.6363 -46.5799 20.9832 -36.8756C57.264 -21.9687 59.3003 168.297 -9.15685 205.242C-53.8254 229.348 -111.731 211.057 -143.439 192.989C-171.6 176.945 -230.674 128.575 -239.741 66.2939C-245.377 27.5551 -232.245 -26.2867 -197.348 -39.5713Z" stroke="white" stroke-width="0.857966" stroke-miterlimit="10"/>
<path d="M108.061 -59.1759C96.9435 -59.2691 83.6108 -78.5527 93.5816 -81.7727C99.34 -83.6352 114.586 -80.6896 120.575 -75.4478C129.01 -68.0715 115.711 -59.1098 108.061 -59.1759Z" stroke="white" stroke-width="0.857966" stroke-miterlimit="10"/>
<path d="M77.8475 -79.0722C78.9354 -81.66 84.0299 -82.8094 88.6783 -85.9608C98.1075 -92.3568 99.4601 -95.3955 106.157 -99.2528C108.769 -100.76 112.283 -102.74 115.714 -101.833C120.967 -100.444 122.278 -94.43 128.946 -83.8386C137.591 -70.0761 140.865 -66.5179 138.395 -59.2249C137.819 -57.5291 137.074 -52.0374 132.911 -48.6874C127.145 -44.0558 120.387 -47.6337 111.938 -44.568C101.79 -40.8921 96.7598 -34.3491 92.3564 -37.2408C89.2542 -39.2772 89.139 -44.8547 86.816 -54.5664C85.0468 -61.9647 83.9343 -66.8193 81.7828 -70.7794C79.2026 -75.4944 76.637 -76.1952 77.8475 -79.0722Z" stroke="white" stroke-width="0.857966" stroke-miterlimit="10"/>
<path d="M60.8539 -73.6785C61.0426 -78.266 68.2468 -80.4862 74.1841 -87.115C86.3602 -100.713 80.7194 -110.43 90.4794 -120.365C94.6206 -124.582 101.119 -128.667 107.632 -127.876C116.875 -126.751 119.98 -117.201 134.209 -97.8388C152.813 -72.5243 160.738 -67.5667 159 -54.0763C158.645 -51.3267 158.299 -40.7696 151.029 -34.4153C141.333 -25.9411 129.71 -33.6507 114.53 -27.2816C97.5684 -20.1749 91.2292 -4.98131 85.5099 -8.12541C81.5378 -10.3089 83.0595 -19.1016 80.0063 -36.2507C77.845 -48.4399 76.5096 -55.5638 72.1895 -61.3986C66.7373 -68.7577 60.6505 -68.6965 60.8539 -73.6785Z" stroke="white" stroke-width="0.857966" stroke-miterlimit="10"/>
<path d="M43.8431 -68.3436C43.108 -74.9185 52.4367 -78.2243 59.6728 -88.3305C74.5713 -109.136 61.7262 -125.398 74.7845 -141.538C80.3739 -148.443 89.9599 -154.621 99.5336 -153.977C112.803 -153.085 117.706 -140.072 139.475 -111.898C168.096 -75.0851 180.422 -68.6033 179.613 -48.9864C179.454 -45.1611 179.527 -29.5656 169.155 -20.1945C155.526 -7.88527 139.015 -19.7412 117.133 -10.0491C93.339 0.488374 85.7133 24.3252 78.661 20.9385C73.8215 18.5957 76.9212 6.59766 73.1941 -17.989C70.6212 -34.9691 69.0701 -44.3279 62.5912 -52.0717C54.2402 -62.0505 44.6297 -61.2614 43.8431 -68.3436Z" stroke="white" stroke-width="0.857966" stroke-miterlimit="10"/>
<path d="M26.7932 -63.0233C25.144 -71.5783 36.5703 -75.982 45.1223 -89.5583C62.7113 -117.583 42.6351 -140.327 59.0528 -162.723C66.0708 -172.305 78.7689 -180.578 91.3983 -180.093C108.703 -179.426 115.327 -162.907 144.692 -125.969C183.24 -77.5945 200.015 -69.6056 200.165 -43.9088C200.194 -39.0076 200.679 -18.3884 187.217 -5.98849C169.638 10.1412 148.27 -5.85371 119.671 7.17113C89.041 21.1247 80.1289 53.6268 71.773 49.9902C66.0635 47.4955 70.7438 32.2823 66.3428 0.260503C63.3509 -21.5129 61.5939 -33.0944 52.9562 -42.757C41.699 -55.3432 28.5673 -53.8239 26.7932 -63.0233Z" stroke="white" stroke-width="0.857966" stroke-miterlimit="10"/>
<path d="M9.71133 -57.7056C12.4729 -46.3839 29.121 -48.6385 43.282 -33.4448C54.0809 -21.8609 56.0437 -8.06171 59.4547 18.5075C64.5197 57.9619 58.2662 76.3927 64.8456 79.0369C74.5174 82.926 84.7136 41.7562 122.185 24.3889C157.486 8.02882 183.754 28.1971 205.254 8.21506C221.829 -7.19175 220.907 -32.8346 220.692 -38.8361C219.55 -70.6055 198.351 -80.1088 149.875 -140.045C112.91 -185.746 104.574 -205.767 83.2237 -206.211C67.541 -206.537 51.7236 -196.163 43.282 -183.911C23.5145 -155.239 50.8611 -126.001 30.5398 -90.7885C20.6916 -73.7251 7.14085 -68.2382 9.71133 -57.7056Z" stroke="white" stroke-width="0.857966" stroke-miterlimit="10"/>
<path d="M150.99 124.52C148.089 123.049 141.997 125.882 141.458 130.296C140.848 135.302 147.741 139.444 150.769 138.157C154.352 136.633 154.839 126.465 150.99 124.52Z" stroke="white" stroke-width="0.857966" stroke-miterlimit="10"/>
<path d="M159.164 151.121C164.109 146.497 166.271 138.01 168.743 123.463C171.193 109.039 170.809 98.7126 168.655 97.9627C167.481 97.5584 164.156 100.722 161.304 103.04C155.964 107.368 146.824 106.888 144.482 107.356C135.905 109.071 133.386 112.257 129.801 118.359C128.142 121.177 124.273 127.426 122.57 134.778C119.973 145.911 108.331 149.342 109.749 153.804C110.943 157.529 122.477 158.433 129.956 158.539C140.674 158.691 151.519 158.262 159.164 151.121Z" stroke="white" stroke-width="0.857966" stroke-miterlimit="10"/>
<path d="M167.736 163.553C175.864 155.289 179.062 141.421 183.987 115.487C188.991 89.4273 188.959 71.5528 186.494 70.8862C184.644 70.3765 178.653 76.8191 173.561 81.4237C163.962 90.1404 146.78 88.7068 143.239 89.2656C127.091 91.7603 123.111 97.7373 116.853 109.034C114.246 113.74 107.093 125.208 103.834 138.753C98.8181 159.502 75.0369 164.935 77.0045 172.627C78.6488 179.033 100.702 180.016 114.579 179.489C134.173 178.727 154.001 177.521 167.736 163.553Z" stroke="white" stroke-width="0.857966" stroke-miterlimit="10"/>
<path d="M176.261 175.903C187.579 164.003 191.777 144.744 199.182 107.429C206.702 69.7271 207.053 44.3464 204.284 43.7142C201.748 43.126 193.095 52.8304 185.778 59.7336C171.946 72.8614 146.699 70.4476 141.958 71.0799C118.243 74.246 112.781 83.0999 103.866 99.6169C100.308 106.206 89.8765 122.897 85.0566 142.627C77.6294 172.995 41.7063 180.425 44.218 191.35C46.3156 200.436 78.8938 201.537 99.1636 200.333C127.628 198.728 156.469 196.714 176.261 175.903Z" stroke="white" stroke-width="0.857966" stroke-miterlimit="10"/>
<path d="M184.759 188.247C199.275 172.71 204.468 148.058 214.353 99.362C224.399 50.022 225.134 17.1425 222.052 16.5323C218.827 15.8878 207.509 28.8147 197.972 38.0215C179.878 55.5309 146.596 52.1614 140.654 52.8843C109.372 56.6802 102.386 68.4332 90.8543 90.187C86.3308 98.6562 72.6354 120.574 66.2595 146.492C56.4137 186.475 8.34888 195.905 11.4119 210.062C13.9579 221.825 57.0606 222.999 83.726 221.171C121.048 218.654 158.919 215.907 184.759 188.247Z" stroke="white" stroke-width="0.857966" stroke-miterlimit="10"/>
<path d="M139.338 34.6813C100.492 39.0924 92.0452 53.7959 77.8328 80.7523C72.3684 91.1158 55.3821 118.246 47.4477 150.349C35.1956 199.954 -25.0184 211.381 -21.4089 228.767C-18.4096 243.226 35.2152 244.451 68.2762 242.001C114.471 238.57 161.365 235.095 193.247 200.586C210.961 181.41 217.146 151.371 229.513 91.2898C242.067 30.3095 243.187 -10.0614 239.805 -10.6544C235.884 -11.3406 221.917 4.78425 210.155 16.302C187.797 38.1906 146.484 33.8702 139.338 34.6813Z" stroke="white" stroke-width="0.857966" stroke-miterlimit="10"/>
<path d="M-176.52 -83.1917C-172.109 -66.2826 -140.45 -74.225 -102.763 -36.1405C-89.2584 -22.4932 -80.2041 -8.21854 -62.3308 -5.99832C-60.5273 -5.77531 -42.6221 -3.81731 -29.9853 -15.3105C-14.0871 -29.769 -23.7907 -49.827 -5.23618 -77.8004C1.59802 -88.1051 2.73502 -85.1129 7.75102 -93.239C29.1578 -127.927 -3.49148 -163.142 15.3473 -198.369C24.0193 -214.585 36.9109 -218.307 35.6857 -220.424C30.3977 -229.509 -188.439 -128.755 -176.52 -83.1917Z" stroke="white" stroke-width="0.857966" stroke-miterlimit="10"/>
<path d="M-57.4299 -29.1146C-56.3469 -29.2617 -44.5408 -28.3795 -36.4422 -36.5056C-26.2019 -46.7662 -33.5017 -60.8938 -21.7691 -79.9667C-17.4515 -86.99 -16.8511 -85.0859 -13.7783 -90.6414C-0.668601 -114.348 -24.1975 -138.197 -12.6756 -161.404C-7.34353 -172.148 1.07363 -174.611 -0.178532 -175.659C-5.84143 -180.443 -150.286 -109.776 -138.94 -79.0257C-134.687 -67.4932 -111.464 -71.5857 -84.8917 -46.7466C-75.2297 -37.7211 -68.6871 -27.5879 -57.4299 -29.1146Z" stroke="white" stroke-width="0.857966" stroke-miterlimit="10"/>
<path d="M-52.5291 -52.2334C-52.2204 -53.0103 -46.4472 -52.9931 -42.899 -57.7007C-38.2922 -63.8075 -43.198 -71.9435 -38.302 -82.1305C-36.5059 -85.8701 -36.4324 -85.0712 -35.3052 -88.0438C-30.4656 -100.828 -44.9231 -113.238 -40.6961 -124.442C-38.7186 -129.716 -35.043 -130.615 -36.0232 -130.897C-43.1882 -129.88 -111.986 -90.7272 -101.373 -74.8597C-97.2296 -68.6597 -82.3972 -68.9562 -67.0331 -57.3527C-61.1938 -52.9417 -57.3711 -49.7118 -52.5291 -52.2334Z" stroke="white" stroke-width="0.857966" stroke-miterlimit="10"/>
<path d="M-47.6283 -75.3498C-51.4313 -86.4632 -66.4034 -90.242 -71.8874 -86.1324C-79.9737 -80.0647 -73.0758 -72.164 -63.801 -70.6937C-56.8688 -69.6032 -43.2764 -62.6313 -47.6283 -75.3498Z" stroke="white" stroke-width="0.857966" stroke-miterlimit="10"/>
<path d="M1120.71 323.291C1110.59 327.53 1106.75 337.923 1113.36 343.856C1126.98 356.065 1183.01 350.034 1185.65 341.758C1188.25 333.605 1141.84 314.442 1120.71 323.291Z" stroke="white" stroke-width="0.857966" stroke-miterlimit="10"/>
<path d="M1145.8 296.136C1168.92 288.034 1207.74 345.716 1191.72 359.334C1181.86 367.708 1158.01 366.661 1138.56 363.909C1120.3 361.326 1094.21 350.764 1087.77 333.223C1084.36 323.911 1086.41 310.643 1093.63 305.997C1099.21 302.402 1106.76 304.019 1108.42 303.421C1116.35 306.713 1117.52 307.992 1123.84 308.764C1132.1 309.773 1139.44 298.363 1145.8 296.136Z" stroke="white" stroke-width="0.857966" stroke-miterlimit="10"/>
<path d="M1169.26 267.765C1196.11 272.054 1225.29 356.305 1196.16 375.694C1177.61 388.043 1145.27 382.59 1122.72 376.062C1102.02 370.065 1067.53 350.054 1060.56 321.374C1056.5 304.71 1061.43 281.268 1075.55 274.487C1086.8 269.084 1101.3 273.73 1103.86 274.088C1118.95 282.209 1120.17 286.341 1131.41 289.122C1146.29 292.801 1158.03 265.964 1169.26 267.765Z" stroke="white" stroke-width="0.857966" stroke-miterlimit="10"/>
<path d="M1191.02 239.584C1220.67 247.489 1241.14 367.014 1198.91 392.24C1171.65 408.52 1130.81 398.754 1105.19 388.4C1082.01 379.037 1039.28 349.571 1031.64 309.712C1027.03 285.674 1034.72 252.109 1055.77 243.164C1072.67 235.974 1094.27 243.353 1097.59 244.941C1120.82 256.049 1121.11 264.876 1137.29 269.667C1158.77 276.048 1175.49 235.452 1191.02 239.584Z" stroke="white" stroke-width="0.857966" stroke-miterlimit="10"/>
<path d="M1211.47 212.684C1244.3 224.089 1255.63 378.885 1200.34 410.071C1164.34 430.197 1115.02 416.227 1086.34 402.026C1060.67 389.314 1009.75 350.397 1001.41 299.331C996.28 267.942 1006.7 224.241 1034.67 213.118C1057.24 204.148 1085.75 214.669 1090.01 217.068C1119.95 233.947 1120.73 244.73 1141.83 251.496C1169.92 260.58 1191.81 205.859 1211.47 212.684Z" stroke="white" stroke-width="0.857966" stroke-miterlimit="10"/>
<path d="M1012.65 183.429C1040.88 172.683 1076.29 186.33 1081.51 189.555C1118.09 212.169 1119.44 224.861 1145.46 233.666C1180.17 245.406 1207.36 176.42 1230.98 186.124C1267.26 201.031 1269.3 391.297 1200.84 428.242C1156.17 452.348 1098.27 434.057 1066.56 415.989C1038.4 399.945 979.326 351.575 970.259 289.294C964.623 250.555 977.755 196.713 1012.65 183.429Z" stroke="white" stroke-width="0.857966" stroke-miterlimit="10"/>
<path d="M1318.06 163.824C1306.94 163.731 1293.61 144.447 1303.58 141.227C1309.34 139.365 1324.59 142.31 1330.58 147.552C1339.01 154.928 1325.71 163.89 1318.06 163.824Z" stroke="white" stroke-width="0.857966" stroke-miterlimit="10"/>
<path d="M1287.85 143.928C1288.94 141.34 1294.03 140.191 1298.68 137.039C1308.11 130.643 1309.46 127.604 1316.16 123.747C1318.77 122.24 1322.28 120.26 1325.71 121.167C1330.97 122.556 1332.28 128.57 1338.95 139.161C1347.59 152.924 1350.86 156.482 1348.39 163.775C1347.82 165.471 1347.07 170.963 1342.91 174.313C1337.14 178.944 1330.39 175.366 1321.94 178.432C1311.79 182.108 1306.76 188.651 1302.36 185.759C1299.25 183.723 1299.14 178.145 1296.82 168.434C1295.05 161.035 1293.93 156.181 1291.78 152.221C1289.2 147.506 1286.64 146.805 1287.85 143.928Z" stroke="white" stroke-width="0.857966" stroke-miterlimit="10"/>
<path d="M1270.85 149.322C1271.04 144.734 1278.25 142.514 1284.18 135.885C1296.36 122.287 1290.72 112.57 1300.48 102.635C1304.62 98.418 1311.12 94.3329 1317.63 95.1245C1326.88 96.2493 1329.98 105.799 1344.21 125.161C1362.81 150.476 1370.74 155.433 1369 168.924C1368.64 171.673 1368.3 182.23 1361.03 188.585C1351.33 197.059 1339.71 189.349 1324.53 195.718C1307.57 202.825 1301.23 218.019 1295.51 214.875C1291.54 212.691 1293.06 203.898 1290.01 186.749C1287.85 174.56 1286.51 167.436 1282.19 161.601C1276.74 154.242 1270.65 154.304 1270.85 149.322Z" stroke="white" stroke-width="0.857966" stroke-miterlimit="10"/>
<path d="M1253.84 154.656C1253.11 148.082 1262.44 144.776 1269.67 134.669C1284.57 113.864 1271.73 97.602 1284.78 81.4624C1290.37 74.5567 1299.96 68.3788 1309.53 69.0233C1322.8 69.9153 1327.71 82.9279 1349.48 111.102C1378.1 147.915 1390.42 154.397 1389.61 174.014C1389.45 177.839 1389.53 193.434 1379.15 202.805C1365.53 215.115 1349.01 203.259 1327.13 212.951C1303.34 223.488 1295.71 247.325 1288.66 243.938C1283.82 241.596 1286.92 229.598 1283.19 205.011C1280.62 188.031 1279.07 178.672 1272.59 170.928C1264.24 160.95 1254.63 161.739 1253.84 154.656Z" stroke="white" stroke-width="0.857966" stroke-miterlimit="10"/>
<path d="M1236.79 159.977C1235.14 151.422 1246.57 147.018 1255.12 133.442C1272.71 105.417 1252.64 82.673 1269.05 60.2772C1276.07 50.6954 1288.77 42.4222 1301.4 42.9074C1318.7 43.574 1325.33 60.0934 1354.69 97.031C1393.24 145.405 1410.02 153.394 1410.16 179.091C1410.19 183.992 1410.68 204.612 1397.22 217.012C1379.64 233.141 1358.27 217.146 1329.67 230.171C1299.04 244.125 1290.13 276.627 1281.77 272.99C1276.06 270.495 1280.74 255.282 1276.34 223.26C1273.35 201.487 1271.59 189.906 1262.96 180.243C1251.7 167.657 1238.57 169.176 1236.79 159.977Z" stroke="white" stroke-width="0.857966" stroke-miterlimit="10"/>
<path d="M1219.71 165.294C1222.47 176.616 1239.12 174.362 1253.28 189.555C1264.08 201.139 1266.04 214.938 1269.45 241.507C1274.52 280.962 1268.27 299.393 1274.85 302.037C1284.52 305.926 1294.71 264.756 1332.19 247.389C1367.49 231.029 1393.75 251.197 1415.25 231.215C1431.83 215.808 1430.91 190.165 1430.69 184.164C1429.55 152.395 1408.35 142.891 1359.87 82.9548C1322.91 37.2539 1314.57 17.2327 1293.22 16.7891C1277.54 16.4632 1261.72 26.8365 1253.28 39.0894C1233.51 67.7612 1260.86 96.9991 1240.54 132.212C1230.69 149.275 1217.14 154.762 1219.71 165.294Z" stroke="white" stroke-width="0.857966" stroke-miterlimit="10"/>
<path d="M1360.99 347.52C1358.09 346.049 1352 348.882 1351.46 353.296C1350.85 358.302 1357.74 362.444 1360.77 361.157C1364.35 359.633 1364.84 349.465 1360.99 347.52Z" stroke="white" stroke-width="0.857966" stroke-miterlimit="10"/>
<path d="M1369.16 374.121C1374.11 369.497 1376.27 361.01 1378.74 346.463C1381.19 332.039 1380.81 321.713 1378.65 320.963C1377.48 320.558 1374.16 323.722 1371.3 326.04C1365.96 330.368 1356.82 329.888 1354.48 330.356C1345.91 332.071 1343.39 335.257 1339.8 341.359C1338.14 344.177 1334.27 350.426 1332.57 357.778C1329.97 368.911 1318.33 372.342 1319.75 376.804C1320.94 380.529 1332.48 381.433 1339.96 381.539C1350.67 381.691 1361.52 381.262 1369.16 374.121Z" stroke="white" stroke-width="0.857966" stroke-miterlimit="10"/>
<path d="M1377.74 386.553C1385.86 378.289 1389.06 364.421 1393.99 338.487C1398.99 312.427 1398.96 294.553 1396.49 293.886C1394.64 293.377 1388.65 299.819 1383.56 304.424C1373.96 313.14 1356.78 311.707 1353.24 312.266C1337.09 314.76 1333.11 320.737 1326.85 332.034C1324.25 336.74 1317.09 348.208 1313.83 361.753C1308.82 382.502 1285.04 387.935 1287 395.627C1288.65 402.033 1310.7 403.016 1324.58 402.489C1344.17 401.727 1364 400.521 1377.74 386.553Z" stroke="white" stroke-width="0.857966" stroke-miterlimit="10"/>
<path d="M1386.26 398.904C1397.58 387.003 1401.78 367.744 1409.18 330.429C1416.7 292.727 1417.05 267.346 1414.28 266.714C1411.75 266.126 1403.1 275.83 1395.78 282.734C1381.95 295.861 1356.7 293.448 1351.96 294.08C1328.24 297.246 1322.78 306.1 1313.87 322.617C1310.31 329.206 1299.88 345.897 1295.06 365.627C1287.63 395.995 1251.71 403.425 1254.22 414.35C1256.32 423.436 1288.89 424.537 1309.16 423.333C1337.63 421.728 1366.47 419.714 1386.26 398.904Z" stroke="white" stroke-width="0.857966" stroke-miterlimit="10"/>
<path d="M1394.76 411.247C1409.28 395.71 1414.47 371.058 1424.35 322.362C1434.4 273.022 1435.13 240.143 1432.05 239.532C1428.83 238.888 1417.51 251.815 1407.97 261.022C1389.88 278.531 1356.6 275.161 1350.65 275.884C1319.37 279.68 1312.39 291.433 1300.85 313.187C1296.33 321.656 1282.64 343.574 1276.26 369.492C1266.41 409.475 1218.35 418.905 1221.41 433.062C1223.96 444.825 1267.06 445.999 1293.73 444.171C1331.05 441.654 1368.92 438.907 1394.76 411.247Z" stroke="white" stroke-width="0.857966" stroke-miterlimit="10"/>
<path d="M1349.34 257.681C1310.49 262.092 1302.05 276.796 1287.83 303.752C1282.37 314.116 1265.38 341.246 1257.45 373.349C1245.2 422.954 1184.98 434.381 1188.59 451.767C1191.59 466.226 1245.22 467.451 1278.28 465.001C1324.47 461.57 1371.36 458.095 1403.25 423.586C1420.96 404.41 1427.15 374.371 1439.51 314.29C1452.07 253.31 1453.19 212.939 1449.8 212.346C1445.88 211.659 1431.92 227.784 1420.15 239.302C1397.8 261.191 1356.48 256.87 1349.34 257.681Z" stroke="white" stroke-width="0.857966" stroke-miterlimit="10"/>
<path d="M1033.48 139.808C1037.89 156.717 1069.55 148.775 1107.24 186.86C1120.74 200.507 1129.8 214.781 1147.67 217.002C1149.47 217.225 1167.38 219.183 1180.01 207.689C1195.91 193.231 1186.21 173.173 1204.76 145.2C1211.6 134.895 1212.74 137.887 1217.75 129.761C1239.16 95.073 1206.51 59.8581 1225.35 24.631C1234.02 8.41549 1246.91 4.69305 1245.69 2.57575C1240.4 -6.50856 1021.56 94.2447 1033.48 139.808Z" stroke="white" stroke-width="0.857966" stroke-miterlimit="10"/>
<path d="M1152.57 193.885C1153.65 193.738 1165.46 194.621 1173.56 186.494C1183.8 176.234 1176.5 162.106 1188.23 143.033C1192.55 136.01 1193.15 137.914 1196.22 132.359C1209.33 108.652 1185.8 84.8026 1197.32 61.5956C1202.66 50.8522 1211.07 48.3894 1209.82 47.3405C1204.16 42.557 1059.71 113.224 1071.06 143.974C1075.31 155.507 1098.54 151.414 1125.11 176.253C1134.77 185.279 1141.31 195.412 1152.57 193.885Z" stroke="white" stroke-width="0.857966" stroke-miterlimit="10"/>
<path d="M1157.47 170.767C1157.78 169.99 1163.55 170.007 1167.1 165.299C1171.71 159.192 1166.8 151.057 1171.7 140.869C1173.49 137.13 1173.57 137.929 1174.69 134.956C1179.53 122.172 1165.08 109.762 1169.3 98.5577C1171.28 93.2841 1174.96 92.3847 1173.98 92.1029C1166.81 93.1199 1098.01 132.273 1108.63 148.14C1112.77 154.34 1127.6 154.044 1142.97 165.647C1148.81 170.058 1152.63 173.288 1157.47 170.767Z" stroke="white" stroke-width="0.857966" stroke-miterlimit="10"/>
<path d="M1162.37 147.65C1158.57 136.537 1143.6 132.758 1138.11 136.868C1130.03 142.935 1136.92 150.836 1146.2 152.306C1153.13 153.397 1166.72 160.369 1162.37 147.65Z" stroke="white" stroke-width="0.857966" stroke-miterlimit="10"/>
</svg>
