<svg width="493" height="319" viewBox="0 0 493 319" fill="none" xmlns="http://www.w3.org/2000/svg">
<circle cx="427.638" cy="32.9218" r="7.33953" fill="#D7E8F0"/>
<circle cx="447.913" cy="35.5589" r="5.97733" fill="#D7E8F0"/>
<path d="M335.009 153.918C335.009 153.918 333.963 150.915 337.042 150.349C340.12 149.782 343.962 146.649 345.689 153.918C347.416 161.186 356.734 196.511 354.832 201.818C352.93 207.125 344.065 216.045 343.934 214.121C343.804 212.198 342.61 189.705 340.207 180.693C337.804 171.681 335.009 153.918 335.009 153.918Z" fill="#D7E8F0"/>
<path d="M323.065 119.59C323.398 119.846 324.667 125.884 329.32 126.505C333.974 127.126 337.673 125.415 334.557 119.334C331.44 113.253 329.233 104.464 327.566 108.889C326.536 111.541 324.398 113.609 321.714 114.55L323.065 119.59Z" fill="#D7E8F0"/>
<path d="M314.363 85.0395L314.238 85.1648C313.693 85.7914 313.241 86.5597 312.538 87.0555C310.631 88.4014 306.691 88.6575 304.817 87.9219C304.741 87.8402 304.659 87.7584 304.594 87.6821C303.793 86.7831 302.959 85.8895 302.109 84.9577C279.769 60.9013 237.355 29.7777 176.857 27.7453V23.7405H177.598C224.54 23.7405 276.178 48.9848 310.549 81.2907C311.541 82.217 312.518 83.1506 313.481 84.0914C313.759 84.4129 314.075 84.718 314.363 85.0395Z" fill="#D7E8F0"/>
<path d="M158.021 316.199C156.61 315.322 155.198 314.39 153.825 313.475" stroke="black" stroke-width="2.04608"/>
<path d="M485.853 278.041L432.999 315.235C432.934 315.202 432.874 315.153 432.809 315.121C429.093 312.848 427.409 309.127 424.32 306.266C421.372 303.542 417.498 301.493 413.395 301.493C409.61 301.456 405.944 302.814 403.096 305.307C400.536 307.645 398.901 310.816 396.367 313.186C393.491 315.938 389.668 317.48 385.688 317.496C380.218 317.5 375.128 314.701 372.202 310.08L371.493 308.898C368.564 304.28 363.476 301.483 358.008 301.483C352.539 301.483 347.451 304.28 344.522 308.898L343.819 310.08C340.899 314.693 335.825 317.494 330.366 317.507C326.389 317.491 322.57 315.948 319.697 313.197C317.153 310.827 315.534 307.656 312.952 305.318C310.105 302.822 306.438 301.464 302.653 301.504C298.572 301.504 294.693 303.536 291.756 306.277C288.666 309.143 286.988 312.859 283.272 315.131C278.203 318.313 271.76 318.313 266.691 315.131C262.975 312.859 261.291 309.138 258.202 306.277C255.254 303.553 251.38 301.504 247.304 301.504C243.52 301.468 239.854 302.826 237.006 305.318C234.445 307.656 232.811 310.827 230.282 313.197C227.404 315.948 223.579 317.491 219.597 317.507C214.128 317.511 209.038 314.712 206.111 310.091L205.409 308.909C202.478 304.291 197.389 301.494 191.92 301.494C186.451 301.494 181.362 304.291 178.432 308.909L177.729 310.091C174.339 315.796 167.071 318.439 160.707 316.989C152.915 315.202 150.893 307.449 144.594 303.76C142.835 302.735 140.824 302.223 138.96 301.4C133.119 298.856 129.24 293.472 124.625 289.31L138.149 301.52C136.868 300.365 136.062 296.616 135.179 294.982C133.852 292.556 132.323 290.247 130.607 288.078C127.169 283.719 123.491 279.654 120.048 275.279C112.223 265.34 104.29 255.489 96.4761 245.539C91.1962 238.816 85.9708 232.048 80.8708 225.183C77.1983 220.23 68.8834 211.468 74.3322 205.055C75.4852 203.813 77.0536 203.038 78.7403 202.875C86.1071 201.884 94.7271 204.297 102.05 205.191C119.045 207.278 136.024 209.474 153.013 211.588C175.745 214.399 198.505 217.2 221.199 220.518L225.046 221.101L226.392 221.309C227.068 221.423 227.58 221.521 227.912 221.565L228.332 221.63C228.359 221.634 228.386 221.634 228.413 221.63L482.387 262.937C485.743 263.486 488.433 266.011 489.194 269.325C489.954 272.64 488.634 276.085 485.853 278.041Z" fill="#3FBDF1"/>
<path d="M433.032 315.24L485.853 278.047C488.639 276.093 489.964 272.646 489.203 269.329C488.442 266.012 485.747 263.487 482.387 262.943L70.2729 195.923C62.8244 194.724 57.6971 203.197 62.2469 209.234L110.779 273.737C118.869 283.919 127.978 293.249 137.963 301.58" stroke="black" stroke-width="2.04608"/>
<path d="M457.149 301.499C457.176 307.29 454.057 312.639 449.005 315.47C443.953 318.3 437.762 318.167 432.837 315.121C429.121 312.843 427.443 309.127 424.348 306.255C421.4 303.531 417.537 301.488 413.45 301.488C409.665 301.452 406 302.809 403.152 305.302C400.585 307.645 398.951 310.811 396.417 313.181C393.539 315.929 389.717 317.47 385.737 317.485C380.269 317.486 375.18 314.688 372.252 310.069L371.549 308.887C368.62 304.27 363.531 301.472 358.063 301.472C352.595 301.472 347.507 304.27 344.577 308.887L343.869 310.069C340.946 314.706 335.847 317.516 330.367 317.513C326.389 317.496 322.569 315.955 319.693 313.208C317.153 310.838 315.524 307.672 312.958 305.329C310.11 302.836 306.444 301.479 302.66 301.515C298.562 301.515 294.693 303.542 291.762 306.283C288.667 309.154 286.989 312.87 283.273 315.148C278.198 318.322 271.756 318.322 266.681 315.148C262.965 312.87 261.287 309.154 258.197 306.283C255.25 303.558 251.381 301.515 247.3 301.515C243.515 301.479 239.85 302.836 237.002 305.329C234.435 307.672 232.806 310.838 230.267 313.208C227.39 315.955 223.57 317.496 219.593 317.513C214.123 317.517 209.033 314.718 206.107 310.097L205.399 308.914C202.469 304.297 197.381 301.499 191.913 301.499C186.444 301.499 181.356 304.297 178.427 308.914L177.724 310.097C174.796 314.715 169.707 317.513 164.238 317.513C160.259 317.497 156.437 315.956 153.559 313.208C151.025 310.838 149.39 307.672 146.824 305.329C143.976 302.836 140.31 301.479 136.526 301.515C132.428 301.515 128.565 303.542 125.628 306.283C122.533 309.154 120.855 312.87 117.139 315.148C112.214 318.194 106.023 318.328 100.971 315.497C95.9186 312.666 92.8002 307.317 92.8263 301.526" stroke="black" stroke-width="2.04608"/>
<path d="M344.871 150.649C349.05 166.859 352.014 183.483 355.327 199.688" stroke="black" stroke-width="2.04608" stroke-linecap="round" stroke-linejoin="round"/>
<path d="M1.80371 317.507V198.756C1.80371 102.111 80.1575 23.7568 176.803 23.7568C223.75 23.7568 275.388 49.0011 309.754 81.3071C310.745 82.2334 311.722 83.1669 312.685 84.1077C312.985 84.4129 313.306 84.718 313.595 85.0395" stroke="black" stroke-width="2.04608" stroke-linecap="round" stroke-linejoin="round"/>
<path d="M326.868 103.391C329.713 108.569 332.279 113.894 334.556 119.345C334.714 119.748 334.894 120.13 335.052 120.533C335.597 121.846 336.142 123.159 336.622 124.489" stroke="black" stroke-width="2.04608" stroke-linecap="round" stroke-linejoin="round"/>
<path d="M418.234 71.6082C418.234 71.6082 411.308 84.4673 427.856 85.5353C444.404 86.6033 455.198 73.439 455.198 73.439" stroke="black" stroke-width="2.04608" stroke-linecap="round" stroke-linejoin="round"/>
<path d="M386.963 180.072C389.448 181.129 391.976 182.17 394.553 183.145C388.312 181.607 381.787 181.635 375.559 183.227C374.502 183.516 365.827 187.172 364.661 186.998C364.83 183.183 366.356 169.632 367.386 167.382C371.848 169.518 383.503 178.595 386.963 180.072Z" fill="#2E2E2E"/>
<path d="M488.639 138.661L483.528 152.583C483.528 152.583 470.908 123.704 442.662 135.147C442.662 135.147 438.215 152.24 414.791 147.624C390.642 142.873 376.769 136.918 377.358 133.67C377.995 130.177 381.215 123.622 381.962 124.118C383.384 120.16 385.194 116.353 387.367 112.752C388.321 111.177 388.381 112.752 388.43 111.662C389.182 95.4304 374.666 92.0467 374.666 92.0467C386.937 80.468 402.33 73.4336 418.044 70.7964C433.758 68.1592 412.9 81.6122 421.547 84.1732C430.195 86.7341 440.003 87.2627 457.428 72.8833C457.439 72.916 505.41 82.6366 488.639 138.661Z" fill="#2E2E2E"/>
<path d="M477.076 164.063C475.746 170.924 462.228 236.701 429.475 250.318C435.545 221.276 413.538 197.574 413.538 197.574C409.625 191.182 404.743 187.292 399.779 185.041C421.03 192.201 444.334 194.495 463.171 179.309C468.532 174.94 473.217 169.803 477.076 164.063V164.063Z" fill="#2E2E2E"/>
<path d="M418.501 205.088C413.215 196.37 406.633 186.938 394.602 183.461C381.678 179.713 366.911 183.08 360.149 192.724C354.641 200.603 349.53 208.695 344.086 216.639C342.501 218.977 340.866 221.314 339.182 223.619C337.068 226.567 334.938 229.498 332.824 232.43C331.494 234.272 330.181 236.113 328.852 237.939" stroke="black" stroke-width="2.04608"/>
<path d="M363.816 188.73C360.034 186.612 356.1 184.776 352.047 183.238" stroke="black" stroke-width="2.04608"/>
<path d="M241.551 223.777C250.007 217.418 258.48 211.06 266.795 204.494C280.918 193.362 294.709 181.266 313.273 178.53C322.226 177.257 331.337 177.638 340.152 179.653" stroke="black" stroke-width="2.04608"/>
<path d="M477.19 163.415C477.19 163.415 461.176 251.648 418.043 252.743" stroke="black" stroke-width="2.04608"/>
<path d="M402.181 238.93L395.556 248.825" stroke="black" stroke-width="2.04608"/>
<path d="M301.084 233.47C300.888 233.438 304.217 231.514 308.26 229.231C316.26 224.71 326.286 226.027 332.845 232.462" stroke="black" stroke-width="2.04608"/>
<path d="M321.104 114.779C322.112 117.057 323.997 121.084 325.027 123.601" stroke="black" stroke-width="2.04608" stroke-linecap="round" stroke-linejoin="round"/>
<path d="M344.087 216.667C342.855 193.504 338.54 165.813 334.181 150.774" stroke="black" stroke-width="2.04608" stroke-linecap="round" stroke-linejoin="round"/>
<path d="M376.523 133.692C380.053 125.645 384.287 117.925 389.176 110.622" stroke="black" stroke-width="2.04608" stroke-linecap="round" stroke-linejoin="round"/>
<path d="M366.983 166.45C365.414 174.624 364.177 181.838 363.425 187.641" stroke="black" stroke-width="2.04608" stroke-linecap="round" stroke-linejoin="round"/>
<path d="M424.876 69.9521C422.587 70.1592 420.308 70.4516 418.038 70.8294C402.323 73.4721 386.931 80.5065 374.66 92.0797C371.639 94.9218 368.853 98.0031 366.329 101.294C363.397 105.075 360.673 111.788 355.404 112.665C349.541 113.63 344.784 107.832 341.52 103.827C336.295 97.4195 331.026 91.0608 326.078 84.4296C323.833 81.4164 321.719 77.6568 317.747 76.7414C314.543 76.0058 310.925 78.3106 308.43 80.0706" stroke="black" stroke-width="2.04608" stroke-linecap="round" stroke-linejoin="round"/>
<path d="M324.602 105.718C326.678 105.015 327.147 107.489 327.147 107.489C327.397 109.554 326.506 111.593 324.82 112.812C322.069 114.992 318.32 115.76 314.876 115.64C313.241 115.586 311.133 115.243 310.103 113.853C309.073 112.464 309.013 110.535 309.318 108.84" stroke="black" stroke-width="2.04608" stroke-linecap="round" stroke-linejoin="round"/>
<path d="M300.022 83.8628C297.869 85.0906 296.32 87.1561 295.745 89.5677C295.19 91.609 296.254 93.7419 298.219 94.5261C303.065 96.7704 308.562 97.1714 313.683 95.654C316.407 94.8422 318.145 93.1094 320.02 91.1152C320.841 90.2326 321.27 89.0546 321.209 87.8503C321.147 86.6459 320.6 85.5179 319.693 84.7237C318.608 83.7979 317.15 83.4366 315.759 83.7484C315.236 83.878 314.745 84.1115 314.315 84.435C314.004 84.6431 313.719 84.8863 313.465 85.1596C312.975 85.8535 312.406 86.488 311.77 87.0504C309.405 88.7286 303.831 88.7123 303.106 87.1975" stroke="black" stroke-width="2.04608" stroke-linecap="round" stroke-linejoin="round"/>
<path d="M321.164 88.5979C322.583 89.0683 323.785 90.0359 324.548 91.3223C326.825 95.556 321.981 99.6862 318.516 101.016C314.467 102.563 310.087 102.547 305.836 102.105C303.842 101.904 301.428 101.942 299.946 100.367C298.768 99.1374 298.312 97.384 298.742 95.7358C298.82 95.4512 298.936 95.1782 299.085 94.924" stroke="black" stroke-width="2.04608" stroke-linecap="round" stroke-linejoin="round"/>
<path d="M324.738 95.4744C324.738 95.4744 328.138 96.9728 327.8 100.574C327.408 104.754 323.441 106.884 319.785 107.881C316.501 108.727 313.106 109.058 309.721 108.862C308.826 108.844 307.935 108.723 307.067 108.502C304.414 107.756 302.272 104.906 302.926 102.106C302.926 102.013 302.975 101.915 303.003 101.822" stroke="black" stroke-width="2.04608" stroke-linecap="round" stroke-linejoin="round"/>
<path d="M332.917 115.586C335.684 114.651 338.625 114.342 341.526 114.681C344.582 114.949 347.536 115.912 350.162 117.498C352.887 119.28 355.344 121.656 358.02 123.552C363.703 127.6 369.724 130.957 375.886 134.199C389.792 141.506 412.938 148.023 420.354 147.777L421.302 147.734C426.751 147.429 432.2 145.908 436.526 142.536C439.808 139.943 442.331 136.513 443.827 132.608C445.041 129.589 445.642 126.359 445.593 123.105C445.565 122.075 445.593 119.967 444.623 119.291" stroke="black" stroke-width="2.04608" stroke-linecap="round" stroke-linejoin="round"/>
<path d="M335.053 120.533C337.935 120.533 337.777 124.119 335.723 125.29C335.386 125.477 335.032 125.632 334.666 125.753L334.317 125.851" stroke="black" stroke-width="2.04608" stroke-linecap="round" stroke-linejoin="round"/>
<path d="M455.144 72.9163C456.937 73.3958 458.73 73.9406 460.522 74.5509L461.133 74.7471C470.052 77.7548 479.277 82.4353 484.808 90.3633C490.409 98.433 492.349 108.415 491.891 118.12C490.834 140.961 481.222 164.647 463.154 179.239C452.6 187.755 439.359 191.172 425.944 190.431C419.312 189.999 412.747 188.851 406.361 187.009C399.512 185.102 392.619 182.824 386.244 179.653C384.217 178.645 382.228 177.55 380.3 176.384C373.81 172.411 367.958 167.513 362.319 162.413C359.67 160.004 356.957 157.618 354.391 155.133C352.211 153.035 349.944 150.812 347.018 149.842C345.875 149.468 344.673 149.302 343.471 149.352C339.739 149.526 336.197 151.036 332.421 150.54C321.67 149.145 317.894 139.021 316.418 129.573C316.02 126.996 315.873 123.454 318.565 122.01C319.043 121.746 319.545 121.525 320.063 121.351C321.86 120.804 323.796 121.57 324.733 123.198C326.157 125.907 329.27 127.265 332.225 126.467L334.279 125.922L334.628 125.824" stroke="black" stroke-width="2.04608" stroke-linecap="round" stroke-linejoin="round"/>
<path d="M304.049 87.9548L303.809 87.6824C303.008 86.7833 302.174 85.8897 301.324 84.958C278.984 60.9015 236.565 29.778 176.067 27.7456V23.7244" stroke="black" stroke-width="2.04608"/>
<path d="M460.216 25.2553V25.2062C459.662 21.9091 458.057 18.8796 455.639 16.5699C451.901 13.1372 446.578 12.0855 441.794 11.982C437.95 11.9118 434.247 13.4273 431.556 16.1721C429.469 13.6548 430.798 10.3583 430.798 10.3583C432.433 6.63128 435.157 5.22549 438.427 5.23639C446.752 5.26363 458.315 14.641 462.287 18.1283C462.87 18.635 463.284 19.0219 463.507 19.218C465.883 21.4793 462.614 34.0442 460.216 25.2553Z" fill="#3FBDF1"/>
<path d="M438.41 5.23652C441.429 2.78456 446.861 0.10375 454.032 3.67816C462.107 7.71028 462.641 14.5376 462.27 18.1284L438.41 5.23652Z" fill="#3FBDF1"/>
<path d="M443.597 60.5201C443.597 60.5201 422.892 66.59 424.793 40.8499C425.26 35.3436 426.136 29.8797 427.414 24.5035C427.55 23.9586 427.676 23.4138 427.812 22.8307C428.413 20.3247 429.687 18.0301 431.495 16.1941" stroke="black" stroke-width="2.04608" stroke-linecap="round" stroke-linejoin="round"/>
<path d="M460.156 25.2063V25.2553C461.534 32.2353 459.387 39.5094 459.24 39.9671" stroke="black" stroke-width="2.04608" stroke-linecap="round" stroke-linejoin="round"/>
<path d="M459.241 40.0378C461.42 37.1663 466.036 39.8253 464.499 43.0892C462.897 46.4947 457.96 49.753 457.96 49.753L454.882 74.0438" stroke="black" stroke-width="2.04608" stroke-linecap="round" stroke-linejoin="round"/>
<path d="M429.474 59.6973L424.102 75.635" stroke="black" stroke-width="2.04608" stroke-linecap="round" stroke-linejoin="round"/>
<path fill-rule="evenodd" clip-rule="evenodd" d="M448.398 46.9579C449.39 45.9172 450.523 50.7121 450.577 51.2134C450.648 52.6901 449.738 53.1913 448.398 53.5074C444.697 54.3253 440.823 53.6955 437.571 51.7474C437.026 51.4205 435.936 50.832 435.909 50.1128C439.756 50.3471 445.036 49.9766 448.049 47.323C448.158 47.1922 448.283 47.0778 448.398 46.9579Z" stroke="black" stroke-width="2.04608"/>
<path d="M444.676 35.1832C446.066 34.9944 447.472 35.3888 448.561 36.273" stroke="black" stroke-width="2.04608" stroke-linecap="round" stroke-linejoin="round"/>
<path d="M429.267 32.9545C430.657 32.7656 432.063 33.16 433.152 34.0442" stroke="black" stroke-width="2.04608" stroke-linecap="round" stroke-linejoin="round"/>
<path d="M460.157 25.2063C457.732 16.4882 446.3 20.128 437.097 18.7876C434.171 18.3626 432.461 17.3546 431.496 16.1722C434.188 13.4273 437.891 11.9118 441.734 11.9821C446.518 12.0856 451.842 13.1372 455.58 16.57C457.997 18.8796 459.603 21.9092 460.157 25.2063Z" fill="black"/>
<path fill-rule="evenodd" clip-rule="evenodd" d="M460.168 25.2553V25.2062C459.614 21.9091 458.009 18.8796 455.591 16.5699C451.854 13.1372 446.53 12.0855 441.746 11.982C437.902 11.9118 434.199 13.4273 431.508 16.1721C429.421 13.6548 430.75 10.3583 430.75 10.3583C432.385 6.63128 435.109 5.22549 438.379 5.23639C446.704 5.26363 458.267 14.641 462.239 18.1283C462.822 18.635 463.236 19.0219 463.459 19.218C465.835 21.4793 462.566 34.0442 460.168 25.2553Z" stroke="black" stroke-width="2.224"/>
<path d="M438.362 5.23628C441.381 2.78432 446.813 0.103506 453.984 3.67792C462.059 7.71003 462.593 14.5374 462.223 18.1281" stroke="black" stroke-width="2.224"/>
<circle cx="447.914" cy="35.5589" r="8.42929" stroke="black" stroke-width="2.224"/>
<circle cx="427.638" cy="32.9218" r="7.33953" stroke="white" stroke-width="0.556"/>
<circle cx="427.638" cy="32.9217" r="8.42929" stroke="black" stroke-width="2.224"/>
<path d="M439.615 34.1041L436.035 33.6355L433.872 43.5741L437.599 43.6123" stroke="black" stroke-width="2.224"/>
<path d="M462.685 28.0505C463.561 31.619 463.402 35.3631 462.227 38.8446C462.227 38.8446 459.072 40.6754 460.015 37.1609C460.957 33.6465 460.56 28.1704 460.56 28.1704L462.685 28.0505Z" fill="black"/>
<path d="M399.778 185.014C398.013 184.426 396.285 183.799 394.553 183.156C396.345 183.622 398.094 184.244 399.778 185.014Z" fill="#2E2E2E"/>
<path d="M225.046 221.102L226.392 221.309C226.01 221.26 225.542 221.183 225.046 221.102Z" fill="#3FBDF1"/>
<path d="M228.331 221.63L227.911 221.565L228.331 221.63Z" fill="#3FBDF1"/>
</svg>
