<svg width="259" height="240" viewBox="0 0 259 240" fill="none" xmlns="http://www.w3.org/2000/svg">
<path d="M231.727 227.813H159.374H164.386L210.148 227.299C218.608 226.585 224.569 218.539 221.355 210.921C220.799 209.605 221.38 209.239 220.693 207.97C213.499 194.834 201.026 184.134 186.892 177.918C187.242 177.854 187.594 177.808 187.955 177.761C185.322 176.483 182.612 175.363 179.837 174.408C178.366 173.899 176.877 173.439 175.391 173.036C168.082 171.038 158.207 171.951 155.097 179.798C152.482 186.385 155.955 194.342 162.486 197.228L174.219 201.577C174.12 201.434 174.031 201.291 173.94 201.141L184.142 204.922C184.557 205.204 184.747 205.705 184.62 206.18C184.493 206.656 184.075 207.004 183.571 207.055L158.793 209.679C155.221 210.029 150.749 211.477 148.116 213.861C146.196 215.583 144.578 217.927 144.593 220.893C142.973 221.012 141.363 221.231 139.773 221.55C137.346 222.057 134.875 222.93 134.7 224.364C134.355 227.242 138.573 227.828 141.232 227.828L124.409 227.764C126.215 227.764 126.438 227.749 127.635 226.593C128.832 225.437 130.172 224.546 130.172 222.795L130.319 217.182C130.319 216.026 130.603 215.091 129.411 215.091H118.757C119.643 215.114 120.461 214.633 120.85 213.861C120.858 213.852 120.863 213.841 120.865 213.829C121.398 212.87 121.519 211.49 121.42 210.184L121.545 209.755L121.864 208.614L128.632 204.752C128.683 204.724 128.732 204.693 128.779 204.659C132.31 202.566 132.752 198.824 131.542 195.479C131.516 195.415 131.501 195.358 131.476 195.304C131.42 195.162 131.369 195.026 131.306 194.891C130.983 194.128 130.582 193.398 130.111 192.712C128.363 190.065 125.827 187.908 123.417 187.344C122.741 187.196 122.05 187.122 121.357 187.123C129.743 179.497 139.405 172.721 150.818 170.468C160.803 168.467 171.13 168.728 180.994 171.23C192.521 174.204 202.901 180.378 211.132 188.717C222.212 199.926 227.395 213.022 231.727 227.813V227.813Z" fill="#353642"/>
<path d="M118.998 194.111C118.6 194.871 117.949 195.477 117.151 195.833C116.47 196.165 115.748 196.413 115.003 196.571C113.775 196.77 113.341 196.017 112.557 195.28C112.11 194.861 111.596 194.515 111.035 194.256C110.354 193.932 109.56 193.92 108.869 194.224C108.397 194.428 108.093 194.882 108.093 195.383C108.143 196.286 109.427 196.999 110.152 197.373C111.1 197.807 112.084 198.159 113.095 198.426C115.573 199.164 111.446 200.701 110.579 200.797C108.723 201.04 106.84 200.997 104.998 200.669C105.527 201.814 105.932 203.01 106.208 204.236C106.495 205.409 106.829 206.821 106.594 208.002C106.307 209.389 105.34 210.42 104.148 211.118L99.5137 192.37C102.968 190.774 106.953 190.647 110.508 192.02C111.705 192.448 113.05 192.16 113.95 191.282L114.424 190.837C115.085 190.698 115.773 190.751 116.403 190.99C117.527 191.4 119.607 192.721 118.998 194.111V194.111Z" fill="#3FBDF1"/>
<path fill-rule="evenodd" clip-rule="evenodd" d="M123.756 215.076H104.619C104.219 218.701 101.064 221.45 97.3037 221.45H32.9688C32.9771 224.962 35.9114 227.807 39.5336 227.816H123.751C127.373 227.803 130.307 224.962 130.324 221.45V217.17C130.324 216.013 129.357 215.076 128.165 215.076L123.756 215.076Z" stroke="black" stroke-width="1.25022"/>
<path fill-rule="evenodd" clip-rule="evenodd" d="M94.2042 173.461C94.7696 174.216 95.1756 175.072 95.399 175.98L104.465 212.631C104.665 213.426 104.718 214.25 104.62 215.064C104.219 218.689 101.064 221.438 97.304 221.437H31.7743C28.3686 221.435 25.4081 219.17 24.6132 215.959L15.5573 179.308C15.0274 177.181 15.5337 174.935 16.9309 173.217C18.3281 171.498 20.4615 170.496 22.7184 170.499H88.238C90.417 170.496 92.4842 171.435 93.877 173.06L94.2042 173.461Z" stroke="black" stroke-width="1.25022"/>
<ellipse cx="7.06577" cy="7.74344" rx="7.06577" ry="7.74344" transform="matrix(0.956301 -0.292384 0.309217 0.950992 50.8672 193.355)" fill="#D7E8F0"/>
<path d="M188.312 177.547C182.531 178.484 178.087 181.047 175.104 186.353C172.432 191.1 172.12 196.893 174.969 201.604L163.339 197.279C156.604 194.288 154.234 187.642 156.933 180.816C160.142 172.684 170.325 171.739 177.861 173.81C179.396 174.229 180.928 174.706 182.445 175.232C184.427 175.921 186.382 176.692 188.312 177.547V177.547Z" fill="#353642"/>
<path d="M52.8613 170.504C57.4755 164.723 63.8383 160.484 71.0594 158.383C70.0976 155.877 69.3343 153.304 68.7764 150.686C62.7848 122.428 81.5231 94.8016 110.657 88.9744C139.79 83.1471 168.29 101.31 174.297 129.561C174.968 132.727 175.342 135.945 175.413 139.176C177.494 138.46 179.624 137.885 181.788 137.455C207.248 132.35 232.158 148.236 237.414 172.93C240.422 187.008 236.405 201.637 226.575 212.4" stroke="#9F9F9F" stroke-width="1.25022"/>
<path d="M116.367 215.079H118.166C119.214 215.103 120.213 214.648 120.862 213.849C120.87 213.84 120.877 213.829 120.88 213.817C121.525 212.962 121.819 211.904 121.704 210.85L121.557 209.741L121.435 208.846L121.877 208.6L128.792 204.644L129.259 204.384C132.635 202.458 132.878 198.866 131.554 195.464C131.531 195.403 131.514 195.346 131.491 195.29C131.432 195.147 131.374 195.014 131.318 194.879C130.98 194.123 130.58 193.395 130.124 192.7C128.376 190.05 125.842 187.896 123.429 187.332C122.754 187.183 122.063 187.109 121.369 187.111C119.924 187.111 118.325 187.379 117.486 188.188C126.456 179.631 136.934 171.599 149.539 169.108C159.529 167.111 169.859 167.377 179.726 169.885C191.252 172.859 201.642 179.04 209.874 187.379C210.308 187.817 210.731 188.26 211.142 188.712C221.459 199.708 228.039 213.596 232.197 227.808" stroke="black" stroke-width="1.25022"/>
<path d="M119.53 227.816H243.649" stroke="black" stroke-width="1.25022"/>
<path d="M150.777 227.814H164.861" stroke="black" stroke-width="0.833477"/>
<path fill-rule="evenodd" clip-rule="evenodd" d="M162.549 197.165C156.015 194.279 152.544 186.322 155.157 179.737C158.272 171.888 168.148 170.975 175.451 172.972C176.942 173.377 178.424 173.835 179.897 174.345C196.317 180.002 211.238 191.748 219.386 206.63C220.073 207.889 220.621 209.183 221.177 210.502C222.695 214.094 222.362 218.172 220.278 221.487C218.193 224.802 214.608 226.958 210.619 227.295L164.86 227.814H150.776C148.225 227.814 145.957 226.239 145.135 223.898C143.59 219.47 145.586 216.13 148.11 213.854C150.743 211.483 154.178 210.128 157.75 209.778L183.456 207.26C183.96 207.209 184.379 206.861 184.508 206.386C184.636 205.91 184.446 205.408 184.032 205.124L162.549 197.165Z" stroke="black" stroke-width="1.25022"/>
<path d="M154.887 214.614C152.54 215.923 150.128 217.972 149.321 220.567C148.393 223.556 150.572 226.271 153.047 227.826" stroke="black" stroke-width="1.25022"/>
<path d="M157.402 218.043C155.213 220.063 153.316 222.623 154.582 225.669C154.944 226.504 155.507 227.243 156.225 227.823" stroke="black" stroke-width="1.25022"/>
<path d="M161.696 221.994C161.696 221.994 156.656 225.627 159.857 227.806" stroke="black" stroke-width="1.25022"/>
<path d="M148.76 227.467L148.849 227.816H140.716C138.058 227.816 134.375 227.42 134.722 224.542C135.07 221.664 144.59 220.879 144.59 220.879" stroke="black" stroke-width="1.25022"/>
<path d="M134.171 136.967L116.864 139.479L119.88 141.54L125.521 145.921C126.404 146.524 126.184 147.945 126.673 148.809C127.053 151.472 125.765 154.1 123.396 155.496C121.027 156.893 118.029 156.792 115.765 155.239L102.156 145.955C100.654 144.95 99.4482 143.581 98.6581 141.985C97.5445 136.611 100.961 130.633 107.536 129.686L126.455 126.931L123.665 124.831L115.073 118.347C114.337 117.794 113.723 117.104 113.267 116.317C112.876 113.593 114.229 110.911 116.687 109.538C119.146 108.165 122.217 108.377 124.451 110.072L139.778 121.633C141.031 122.566 142.044 123.769 142.738 125.146C143.783 130.341 140.44 136.055 134.171 136.967V136.967Z" fill="#3FBDF1"/>
<path d="M121.438 208.843C121.438 208.843 120.91 204.341 119.122 202.755" stroke="black" stroke-width="1.25022"/>
<path d="M99.3359 192.684C102.828 191.021 106.883 190.869 110.497 192.266C111.696 192.695 113.043 192.407 113.945 191.528L117.478 188.173" stroke="black" stroke-width="1.25022"/>
<path d="M110.568 211.807L113.519 213.093C113.651 213.146 113.801 213.142 113.931 213.082C114.06 213.022 114.157 212.912 114.198 212.778L114.663 211.76" stroke="black" stroke-width="1.25022"/>
<path d="M111.05 206.125C111.554 207.247 111.368 208.548 110.568 209.495" stroke="black" stroke-width="0.833477"/>
<path d="M117.743 215.076C118.207 214.409 118.204 212.798 118.085 212.151C118.009 211.74 117.296 211.593 117.22 212.006C117.012 213.16 115.67 214.933 114.43 215.076" stroke="black" stroke-width="1.25022"/>
<ellipse cx="111.786" cy="207.055" rx="3.78725" ry="3.67248" stroke="black" stroke-width="1.25022"/>
<path d="M110.518 210.513L109.843 212.353C108.897 212.026 107.856 212.077 106.948 212.495C106.041 212.913 105.342 213.664 105.006 214.582" stroke="black" stroke-width="1.25022"/>
<ellipse opacity="0.53" cx="111.785" cy="207.055" rx="3.20635" ry="3.10919" fill="white"/>
<path d="M104.133 211.359C105.325 210.661 106.289 209.638 106.576 208.245C106.814 207.062 106.479 205.653 106.193 204.479C105.917 203.253 105.512 202.058 104.983 200.913C106.824 201.24 108.708 201.282 110.563 201.038C111.428 200.945 115.558 199.415 113.08 198.669C112.069 198.403 111.085 198.05 110.14 197.614C109.409 197.247 108.128 196.534 108.082 195.629C108.076 195.129 108.375 194.673 108.843 194.465C109.535 194.163 110.33 194.177 111.01 194.502C111.572 194.759 112.087 195.105 112.532 195.526C113.318 196.264 113.747 197.002 114.98 196.812C115.724 196.657 116.444 196.409 117.123 196.074C117.923 195.719 118.576 195.112 118.975 194.352C119.589 192.967 117.504 191.647 116.372 191.251C115.744 191.011 115.057 190.956 114.396 191.093" stroke="black" stroke-width="1.25022"/>
<path fill-rule="evenodd" clip-rule="evenodd" d="M134.172 136.967L116.864 139.479L119.88 141.54L123.782 144.197C125.866 145.566 127.026 147.919 126.816 150.352C126.605 152.784 125.057 154.917 122.767 155.931C120.477 156.944 117.801 156.679 115.768 155.239L102.159 145.955C100.657 144.95 99.451 143.581 98.6609 141.985C95.7666 136.158 99.1505 128.397 106.712 127.303L121.722 125.123L123.665 124.831L115.073 118.347C113.111 116.865 112.112 114.482 112.454 112.093C112.795 109.704 114.425 107.674 116.729 106.766C119.033 105.859 121.662 106.212 123.624 107.693L138.951 119.254C140.913 120.701 142.257 122.797 142.728 125.143C143.783 130.341 140.44 136.055 134.172 136.967V136.967Z" stroke="black" stroke-width="1.25022"/>
<path d="M96.1823 165.499L96.0149 161.211L94.054 163.159C93.3615 163.846 92.2267 163.859 91.5174 163.189C90.8097 162.517 90.796 161.417 91.4869 160.729L95.0002 157.251C95.7402 156.517 96.8603 156.28 97.8481 156.65C98.8359 157.02 99.5017 157.925 99.5409 158.951L99.7057 163.324L101.152 161.743C101.467 161.396 101.912 161.186 102.388 161.158C102.864 161.13 103.332 161.287 103.688 161.595C104.045 161.901 104.262 162.332 104.291 162.794C104.32 163.255 104.159 163.709 103.843 164.055L100.994 167.171C100.251 167.994 99.0635 168.293 98.0012 167.923C96.9389 167.554 96.2175 166.592 96.1823 165.499V165.499Z" fill="#D7E8F0"/>
<path d="M110.879 173.232L112.967 172.78L111.838 172.042C111.44 171.781 111.334 171.258 111.6 170.871C111.868 170.484 112.409 170.382 112.807 170.642L114.821 171.948C115.248 172.224 115.464 172.721 115.369 173.21C115.275 173.699 114.889 174.086 114.388 174.194L112.249 174.661L113.155 175.19C113.352 175.305 113.494 175.492 113.549 175.709C113.604 175.926 113.568 176.155 113.449 176.346C113.201 176.744 112.668 176.873 112.257 176.634L110.481 175.594C110.014 175.323 109.765 174.803 109.852 174.282C109.94 173.761 110.348 173.344 110.879 173.232V173.232Z" fill="#D7E8F0"/>
<path d="M105.601 185.057L105.771 183.704L105.053 184.22C104.932 184.308 104.779 184.346 104.629 184.324C104.479 184.303 104.344 184.225 104.254 184.107C104.067 183.862 104.119 183.516 104.371 183.332L105.639 182.41C105.909 182.215 106.273 182.194 106.564 182.358C106.856 182.522 107.019 182.838 106.978 183.163L106.806 184.545L107.341 184.117C107.458 184.024 107.609 183.979 107.759 183.993C107.91 184.008 108.049 184.08 108.145 184.193C108.241 184.307 108.287 184.453 108.273 184.599C108.258 184.745 108.184 184.88 108.066 184.973L107.011 185.814C106.735 186.027 106.354 186.058 106.045 185.892C105.736 185.727 105.561 185.397 105.601 185.057V185.057Z" fill="#D7E8F0"/>
<path d="M188.312 177.717L188.206 177.891C188.125 177.842 188.04 177.799 187.952 177.763L188.312 177.717Z" fill="#353642"/>
</svg>
