<svg width="204" height="237" viewBox="0 0 204 237" fill="none" xmlns="http://www.w3.org/2000/svg">
<path d="M139.997 165.568C140 165.551 140 165.534 139.997 165.518C139.996 165.497 139.996 165.476 139.997 165.455C139.997 165.455 139.997 165.432 139.997 165.416C140.004 165.46 140.012 165.504 140.023 165.547C140.017 165.557 140.008 165.564 139.997 165.568Z" fill="white"/>
<path d="M139.956 165.414C137.76 167.638 135.586 170.112 133.268 172.36C132.631 172.985 131.979 173.588 131.312 174.171C130.571 174.819 129.807 175.435 129.025 175.999C128.969 175.834 128.899 175.674 128.818 175.521C127.505 172.911 123.946 171.258 123.504 168.298C123.102 165.534 125.583 162.994 125.178 160.284C124.72 157.22 120.969 155.4 120.275 152.406C119.833 150.548 120.228 148.405 120.067 146.489C119.883 144.346 119.522 142.223 118.989 140.14C119.249 140.122 119.508 140.114 119.768 140.106C125.042 140.017 130.233 142.993 131.94 147.175C133.315 150.568 132.616 154.461 134.442 157.632C134.552 157.837 134.677 158.034 134.814 158.222C135.056 158.555 135.316 158.874 135.593 159.177L136.173 159.783C136.269 159.88 136.375 159.968 136.472 160.073C136.568 160.177 136.672 160.269 136.768 160.373C137.677 161.247 138.605 162.127 139.207 163.171C139.262 163.262 139.311 163.356 139.353 163.453C139.408 163.55 139.456 163.65 139.498 163.753C139.553 163.866 139.595 163.973 139.634 164.077C139.673 164.182 139.722 164.338 139.763 164.448C139.821 164.644 139.875 164.829 139.917 165.022C139.917 165.072 139.917 165.113 139.932 165.153C139.948 165.192 139.932 165.184 139.932 165.202C139.936 165.218 139.936 165.234 139.932 165.249C139.932 165.283 139.932 165.307 139.948 165.33V165.346C139.944 165.369 139.947 165.392 139.956 165.414Z" fill="white"/>
<path d="M139.989 165.575H139.997L139.989 165.583V165.575Z" fill="white"/>
<path d="M140.005 165.56C140.07 165.502 140.124 165.463 140.189 165.406C140.135 165.455 140.07 165.51 140.013 165.568C140.013 165.568 140.013 165.568 139.997 165.568L140.005 165.56Z" fill="white"/>
<path d="M158.47 152.709C158.414 153.619 158.414 154.532 158.47 155.442C156.885 155.831 155.324 156.259 153.794 156.776C152.843 157.092 151.91 157.439 150.977 157.836C148.389 158.89 145.953 160.286 143.731 161.986C144.215 161.157 144.556 160.251 144.739 159.308C144.739 159.269 144.755 159.227 144.762 159.18C145.165 157.225 145.196 155.171 146.113 153.302C147.82 149.856 152.811 147.358 158.036 147.196H158.132C158.608 147.196 159.091 147.196 159.574 147.219C159.033 149.01 158.664 150.848 158.47 152.709Z" fill="white"/>
<path d="M144.778 159.365C144.778 159.412 144.762 159.454 144.754 159.493C144.568 160.439 144.223 161.347 143.732 162.179C143.546 162.47 143.341 162.748 143.12 163.013C142.369 163.895 141.323 164.64 140.354 165.42C140.289 165.481 140.22 165.537 140.148 165.59C140.093 165.64 140.027 165.694 139.969 165.752C139.969 165.752 139.969 165.752 139.953 165.752C139.957 165.742 139.957 165.731 139.953 165.721C139.947 165.693 139.938 165.666 139.927 165.64C139.927 165.64 139.927 165.616 139.927 165.6C139.923 165.587 139.923 165.572 139.927 165.558V165.543C139.927 165.519 139.927 165.496 139.911 165.462C139.915 165.446 139.915 165.43 139.911 165.415C139.919 165.399 139.919 165.381 139.911 165.365C139.906 165.321 139.898 165.277 139.887 165.234C139.845 165.041 139.79 164.855 139.732 164.659C139.69 164.538 139.65 164.397 139.6 164.287C139.55 164.177 139.518 164.075 139.463 163.963C139.426 163.857 139.377 163.756 139.316 163.662C139.273 163.565 139.223 163.47 139.168 163.38C138.557 162.333 137.616 161.452 136.694 160.576C136.596 160.471 136.491 160.364 136.393 160.275C136.296 160.186 136.188 160.081 136.09 159.985L135.503 159.378C135.222 159.073 134.958 158.754 134.712 158.42C134.712 158.42 135.25 149.067 140.074 146.224C144.63 143.532 144.778 157.785 144.778 159.365Z" fill="white"/>
<path d="M139.86 165.531V165.57C139.863 165.554 139.863 165.537 139.86 165.521C139.859 165.5 139.859 165.479 139.86 165.458C139.86 165.458 139.86 165.435 139.86 165.419C139.858 165.456 139.858 165.494 139.86 165.531Z" fill="white"/>
<path d="M156.029 150.226L153.702 156.782C152.748 157.097 151.811 157.443 150.875 157.839C152.37 154.939 154.081 152.317 156.029 150.226V150.226Z" fill="white"/>
<path d="M139.886 165.581C139.886 165.528 139.878 165.477 139.863 165.427C139.878 165.523 139.886 165.581 139.886 165.581Z" fill="white"/>
<path d="M122.194 143.635C127.411 150.387 130.875 161.862 133.113 172.338C132.473 172.961 131.818 173.563 131.149 174.145L122.194 143.635Z" fill="white"/>
<path d="M140.614 155.019C139.571 158.199 139.532 161.409 139.654 163.443C139.686 164.1 139.755 164.755 139.863 165.404L140.614 155.019Z" fill="white"/>
<path fill-rule="evenodd" clip-rule="evenodd" d="M139.894 165.661C139.896 165.644 139.896 165.628 139.894 165.611C139.892 165.59 139.892 165.569 139.894 165.549C139.894 165.549 139.894 165.525 139.894 165.51C139.9 165.553 139.909 165.597 139.92 165.64C139.914 165.65 139.904 165.657 139.894 165.661Z" stroke="#CCDDE2" stroke-width="1.23167"/>
<path fill-rule="evenodd" clip-rule="evenodd" d="M139.851 165.507C137.651 167.726 135.471 170.196 133.148 172.438C132.509 173.062 131.856 173.664 131.187 174.246C130.445 174.892 129.68 175.507 128.896 176.069C128.839 175.905 128.769 175.746 128.687 175.593C127.372 172.988 123.805 171.339 123.362 168.385C122.958 165.627 125.445 163.092 125.039 160.389C124.581 157.331 120.82 155.515 120.125 152.528C119.682 150.673 120.078 148.535 119.917 146.623C119.732 144.485 119.37 142.366 118.836 140.288C119.096 140.27 119.357 140.262 119.617 140.254C124.904 140.166 130.107 143.135 131.818 147.308C133.195 150.694 132.495 154.578 134.325 157.742C134.436 157.947 134.56 158.144 134.698 158.331C134.94 158.663 135.201 158.981 135.479 159.284L136.06 159.889C136.156 159.985 136.263 160.074 136.359 160.178C136.456 160.282 136.56 160.373 136.656 160.477C137.568 161.35 138.497 162.228 139.101 163.27C139.156 163.36 139.205 163.454 139.247 163.551C139.302 163.648 139.351 163.748 139.393 163.85C139.448 163.962 139.489 164.069 139.528 164.173C139.568 164.278 139.617 164.434 139.659 164.543C139.716 164.739 139.771 164.924 139.812 165.116C139.812 165.166 139.812 165.207 139.828 165.247C139.844 165.286 139.828 165.278 139.828 165.296C139.832 165.311 139.832 165.328 139.828 165.343C139.828 165.377 139.828 165.4 139.844 165.424V165.439C139.84 165.462 139.842 165.486 139.851 165.507V165.507Z" stroke="#CCDDE2" stroke-width="1.23167"/>
<path d="M144.646 159.422C144.461 160.361 144.12 161.262 143.635 162.087C143.451 162.376 143.25 162.654 143.031 162.918C142.289 163.796 141.255 164.538 140.297 165.314C140.233 165.375 140.165 165.431 140.094 165.484C140.028 165.541 139.974 165.58 139.909 165.637" stroke="#CCDDE2" stroke-width="1.23167"/>
<path d="M158.401 155.557C158.345 154.649 158.345 153.738 158.401 152.83C158.595 150.975 158.965 149.144 159.507 147.36C159.023 147.329 158.539 147.329 158.062 147.336H157.966C152.729 147.498 147.726 149.991 146.015 153.429C145.096 155.294 145.065 157.336 144.661 159.295" stroke="#CCDDE2" stroke-width="1.23167"/>
<path d="M144.648 159.425C144.648 159.383 144.664 159.344 144.672 159.295" stroke="#CCDDE2" stroke-width="1.23167"/>
<path fill-rule="evenodd" clip-rule="evenodd" d="M144.669 159.284C144.669 159.331 144.653 159.373 144.646 159.412C144.462 160.354 144.121 161.259 143.635 162.087C143.451 162.376 143.25 162.654 143.031 162.918C142.289 163.796 141.255 164.538 140.297 165.314C140.233 165.375 140.165 165.431 140.094 165.484C140.039 165.533 139.974 165.588 139.916 165.645C139.916 165.645 139.916 165.645 139.901 165.645C139.904 165.635 139.904 165.624 139.901 165.614C139.895 165.586 139.886 165.559 139.875 165.533C139.875 165.533 139.875 165.51 139.875 165.494C139.871 165.48 139.871 165.466 139.875 165.452V165.437C139.875 165.413 139.875 165.39 139.859 165.356C139.863 165.341 139.863 165.324 139.859 165.309C139.867 165.294 139.867 165.275 139.859 165.26C139.854 165.216 139.846 165.172 139.836 165.129C139.794 164.937 139.739 164.752 139.682 164.556C139.64 164.436 139.601 164.296 139.552 164.186C139.502 164.077 139.471 163.975 139.416 163.863C139.38 163.758 139.331 163.657 139.271 163.564C139.228 163.467 139.18 163.373 139.125 163.283C138.521 162.241 137.591 161.363 136.68 160.49C136.583 160.386 136.479 160.279 136.383 160.191C136.286 160.102 136.18 159.998 136.083 159.902L135.502 159.297C135.225 158.994 134.964 158.676 134.721 158.344C134.721 158.344 135.252 149.029 140.021 146.198C144.523 143.518 144.669 157.711 144.669 159.284V159.284Z" stroke="#CCDDE2" stroke-width="1.23167"/>
<path d="M144.648 159.425C144.648 159.383 144.664 159.344 144.672 159.295" stroke="#CCDDE2" stroke-width="1.23167"/>
<path fill-rule="evenodd" clip-rule="evenodd" d="M139.885 165.629V165.668C139.888 165.652 139.888 165.635 139.885 165.619C139.884 165.598 139.884 165.577 139.885 165.556C139.885 165.556 139.885 165.533 139.885 165.517C139.884 165.555 139.884 165.592 139.885 165.629Z" stroke="#CCDDE2" stroke-width="1.23167"/>
<path d="M156.028 150.319C154.083 152.403 152.382 155.033 150.882 157.945" stroke="#CCDDE2" stroke-width="1.23167"/>
<path fill-rule="evenodd" clip-rule="evenodd" d="M139.911 165.679C139.911 165.627 139.903 165.575 139.888 165.525C139.904 165.622 139.911 165.679 139.911 165.679Z" stroke="#CCDDE2" stroke-width="1.23167"/>
<path d="M122.248 143.726C127.456 150.48 130.914 161.959 133.149 172.438" stroke="#CCDDE2" stroke-width="1.23167"/>
<path d="M140.638 155.114C139.596 158.294 139.557 161.506 139.679 163.54C139.711 164.198 139.78 164.853 139.888 165.502" stroke="#CCDDE2" stroke-width="1.23167"/>
<path d="M196.031 80.1368C199.346 92.5562 202.765 105.937 202.484 118.703C202.184 132.156 195.335 143.447 183.065 149.178C175.078 152.905 166.492 153.59 158.401 155.552C156.812 155.94 155.247 156.367 153.713 156.883C152.76 157.198 151.825 157.544 150.89 157.94C148.299 158.995 145.859 160.389 143.635 162.087C142.82 162.71 142.037 163.375 141.292 164.08C140.823 164.522 140.357 164.983 139.888 165.46C139.419 165.937 139.888 165.476 139.872 165.484C139.857 165.491 139.872 165.484 139.872 165.484C137.672 167.703 135.492 170.172 133.169 172.415C132.53 173.038 131.877 173.641 131.208 174.222C130.466 174.868 129.701 175.483 128.917 176.046C126.271 177.973 123.352 179.401 119.987 179.82C118.501 180.01 117.006 180.124 115.508 180.161C115.484 180.169 115.459 180.169 115.435 180.161" stroke="#CCDDE2" stroke-width="1.23167"/>
<path d="M63.5293 9.44957C63.5293 9.44957 48.0711 5.92015 35.204 10.2701C33.6011 10.7983 32.0481 11.4677 30.5635 12.2705C23.2719 16.2167 17.7693 23.6323 18.1729 37.1014C18.3891 44.1342 17.9776 51.0706 16.5922 57.8012C16.1391 59.9857 15.5792 62.1477 14.9126 64.287C13.2795 69.5179 10.9225 74.4943 7.91002 79.0715C-1.68364 93.6215 -0.23053 108.745 10.41 122.768C10.9673 123.503 11.5402 124.23 12.1287 124.941" stroke="#CCDDE2" stroke-width="1.23167"/>
<rect x="61.3423" y="2.85413" width="134.821" height="129.524" rx="20.2099" fill="#3FBDF1"/>
<rect x="59.2231" y="1" width="136.94" height="131.378" rx="21.5528" stroke="black" stroke-width="1.23167"/>
<rect x="63.9907" y="5.50287" width="129.524" height="124.226" rx="20.2099" fill="#3FBDF1"/>
<path fill-rule="evenodd" clip-rule="evenodd" d="M150.93 12.1247H178.073C181.77 12.1247 184.773 15.3394 184.773 19.2952V82.0171C184.773 85.9808 181.77 89.2032 178.073 89.2032H150.93C147.241 89.2032 144.248 85.9808 144.248 82.0171V19.2952C144.248 15.3394 147.241 12.1247 150.93 12.1247ZM177.865 87.2656C180.614 87.257 182.841 85.0349 182.851 82.2902V19.0378C182.844 16.291 180.616 14.0657 177.865 14.0571H151.157C148.404 14.0657 146.173 16.2893 146.16 19.0378V82.285C146.173 85.0334 148.404 87.2571 151.157 87.2656H177.865Z" fill="#D7E8F0"/>
<path fill-rule="evenodd" clip-rule="evenodd" d="M150.665 96.6198H177.808C181.505 96.6198 184.509 99.8263 184.509 103.772V113.288C184.509 117.244 181.505 120.458 177.808 120.458H150.665C146.979 120.458 143.983 117.244 143.983 113.288V103.772C143.983 99.8263 146.979 96.6198 150.665 96.6198ZM177.6 118.528C180.351 118.521 182.579 116.302 182.586 113.563V103.515C182.579 100.776 180.351 98.5558 177.6 98.5473H150.892C148.139 98.5558 145.908 100.774 145.895 103.515V113.563C145.908 116.304 148.139 118.521 150.892 118.528H177.6Z" fill="#D7E8F0"/>
<path d="M116.916 103.506L77.2307 102.939C76.3417 102.925 75.6322 102.211 75.6452 101.344C75.6446 101.2 75.6656 101.057 75.7076 100.919C75.9179 100.246 76.5588 99.7892 77.2801 99.7984L116.965 100.361C116.669 100.81 116.503 101.33 116.485 101.864C116.463 102.441 116.613 103.011 116.916 103.506Z" fill="#3FBDF1"/>
<path d="M126.69 102.377C126.483 103.048 125.848 103.507 125.128 103.506L122.263 103.466C122.89 102.514 122.909 101.299 122.313 100.328L125.177 100.368C126.066 100.386 126.775 101.097 126.766 101.962C126.761 102.103 126.736 102.243 126.69 102.377Z" fill="#D7E8F0"/>
<path d="M126.439 109.001C126.232 109.674 125.597 110.133 124.88 110.128L85.4458 109.563C86.1974 108.685 86.3662 107.462 85.8798 106.42L124.916 106.965C125.804 106.981 126.511 107.696 126.501 108.566C126.503 108.713 126.482 108.86 126.439 109.001Z" fill="#D7E8F0"/>
<path d="M80.6776 109.334L77.1989 109.283C76.3311 109.271 75.6366 108.563 75.6451 107.7C75.6468 107.554 75.6682 107.409 75.7087 107.268C75.9091 106.599 76.5326 106.144 77.2345 106.155L80.3343 106.203C80.1531 106.577 80.0509 106.985 80.0343 107.399C80.0085 108.1 80.2368 108.786 80.6776 109.334Z" fill="#3FBDF1"/>
<path d="M114.052 116.22L77.2305 115.692C76.344 115.672 75.6377 114.953 75.6451 114.078C75.646 113.935 75.6688 113.793 75.7127 113.657C75.9179 112.976 76.5527 112.51 77.2721 112.512L114.039 113.046C113.427 114.018 113.427 115.249 114.039 116.22H114.052Z" fill="#3FBDF1"/>
<path d="M126.711 115.308C126.506 116.013 125.871 116.493 125.155 116.485L119.38 116.408L114.245 116.336C113.634 115.328 113.634 114.05 114.245 113.042L119.476 113.122L125.183 113.207C126.068 113.222 126.775 113.966 126.766 114.874C126.768 115.021 126.749 115.167 126.711 115.308Z" fill="#D7E8F0"/>
<path d="M122.313 103.691C121.49 104.976 119.844 105.455 118.461 104.811C117.078 104.167 116.385 102.599 116.839 101.143C117.294 99.6863 118.755 98.7907 120.259 99.0473C121.763 99.3039 122.845 100.633 122.791 102.158C122.772 102.703 122.607 103.232 122.313 103.691Z" fill="white"/>
<path opacity="0.72" d="M121.2 101.792C121.129 102.159 120.951 102.498 120.688 102.77C120.56 102.908 120.42 103.036 120.27 103.151C120.187 103.208 119.756 103.545 119.673 103.503C119.105 103.224 118.39 102.522 118.301 101.836C118.286 101.729 118.286 101.62 118.301 101.513C118.366 101.131 118.708 100.853 119.105 100.858C119.36 100.867 119.596 100.994 119.74 101.2C119.903 101.008 120.146 100.9 120.401 100.905C120.631 100.912 120.847 101.012 120.998 101.18C121.149 101.348 121.222 101.569 121.2 101.792Z" fill="#3FBDF1"/>
<path d="M85.5258 109.563C84.938 110.27 84.0633 110.672 83.1458 110.658C82.2284 110.644 81.3664 110.215 80.8004 109.49C80.3532 108.928 80.1225 108.222 80.1502 107.503C80.1672 107.077 80.2712 106.659 80.4559 106.275C80.9872 105.192 82.1032 104.524 83.3056 104.568C84.4626 104.605 85.4964 105.302 85.9662 106.363C86.4512 107.426 86.2829 108.675 85.5336 109.571L85.5258 109.563Z" fill="white"/>
<path opacity="0.72" d="M84.6442 107.352C84.5717 107.719 84.3936 108.058 84.1308 108.33C84.005 108.47 83.8653 108.598 83.7137 108.712C83.6334 108.769 83.2003 109.109 83.12 109.065C82.5532 108.788 81.8392 108.084 81.7483 107.393C81.7336 107.286 81.7336 107.177 81.7483 107.069C81.8046 106.756 82.0487 106.507 82.3663 106.438C82.684 106.37 83.0123 106.496 83.1976 106.758C83.4161 106.461 83.8153 106.351 84.16 106.493C84.5047 106.635 84.7034 106.991 84.6388 107.352H84.6442Z" fill="#3FBDF1"/>
<path d="M119.386 116.44C118.632 117.579 117.216 118.08 115.916 117.666C114.615 117.252 113.747 116.024 113.789 114.658C113.808 114.126 113.964 113.607 114.243 113.153C114.824 112.222 115.86 111.675 116.955 111.72C118.05 111.766 119.037 112.396 119.54 113.372C120.042 114.348 119.983 115.519 119.386 116.44Z" fill="white"/>
<path opacity="0.72" d="M118.284 114.501C118.212 114.869 118.034 115.209 117.77 115.482C117.645 115.622 117.505 115.75 117.353 115.864C117.273 115.921 116.84 116.259 116.76 116.217C116.193 115.937 115.478 115.236 115.387 114.545C115.373 114.437 115.373 114.328 115.387 114.221C115.444 113.907 115.688 113.658 116.006 113.59C116.323 113.522 116.652 113.648 116.837 113.909C117.055 113.613 117.454 113.504 117.798 113.645C118.142 113.786 118.341 114.141 118.279 114.501H118.284Z" fill="#3FBDF1"/>
<path d="M75.3811 19.802L75.449 29.2327C75.4853 32.6506 78.2178 35.4317 81.6427 35.5363L90.9997 35.6978C92.6254 35.7227 94.1918 35.0893 95.3412 33.9422C96.4907 32.7951 97.125 31.2322 97.0993 29.6105L97.0288 20.1798C96.9953 16.7622 94.2624 13.9808 90.8378 13.8788L81.4807 13.7147C79.855 13.6898 78.2886 14.3232 77.1392 15.4703C75.9898 16.6174 75.3555 18.1803 75.3811 19.802Z" fill="white"/>
<path d="M76.7046 22.0276L76.7541 28.8032C76.7862 31.7482 79.1524 34.144 82.1178 34.2339L90.222 34.3736C91.63 34.3947 92.9867 33.8491 93.9829 32.8611C94.9791 31.8731 95.53 30.5268 95.5102 29.129V28.6713C94.3718 26.3593 92.1549 22.8991 89.7791 24.968C86.3692 27.942 84.8088 25.6792 82.8212 22.7595C81.1618 20.3156 78.6375 18.5312 76.7046 22.0276Z" fill="#3FBDF1"/>
<ellipse cx="90.7544" cy="19.1993" rx="2.23701" ry="2.29673" transform="rotate(-33.6 90.7544 19.1993)" fill="#3FBDF1"/>
<path d="M129.699 23.5146C126.708 23.5136 124.039 25.3909 123.036 28.2024C122.033 31.0139 122.912 34.1508 125.232 36.0354L106.715 73.6812C106.601 73.6632 106.486 73.6519 106.37 73.6473C106.075 73.6512 105.782 73.6967 105.499 73.7826L93.4527 58.8528C94.5529 57.3385 94.6249 55.3106 93.6349 53.7224C92.6448 52.1342 90.7897 51.3016 88.9415 51.6159C87.0932 51.9303 85.6195 53.329 85.213 55.1547C84.8065 56.9803 85.548 58.8699 87.0891 59.935L78.6468 83.8997C77.1291 83.9903 75.8861 85.136 75.6759 86.638C75.4657 88.14 76.3467 89.5815 77.7816 90.0831C79.2164 90.5848 80.8068 90.0074 81.5828 88.7032C82.3587 87.3989 82.1047 85.7298 80.9758 84.7139L89.4181 60.7467C89.5224 60.7467 89.6241 60.7623 89.7284 60.7623C90.3562 60.7623 90.9773 60.6348 91.5541 60.3877L103.598 75.3123C103.344 75.7713 103.21 76.2865 103.207 76.8107C103.174 77.9677 103.773 79.0512 104.773 79.6394C105.772 80.2277 107.013 80.2277 108.012 79.6394C109.012 79.0512 109.611 77.9677 109.578 76.8107C109.576 76.1039 109.335 75.4184 108.895 74.8648L127.412 37.2191C130.073 38.1536 133.036 37.4213 134.951 35.3557C136.866 33.2902 137.368 30.2868 136.226 27.7137C135.085 25.1406 132.52 23.4903 129.699 23.5146Z" fill="#D7E8F0"/>
<path d="M151.976 37.0569H176.615" stroke="white" stroke-width="1.23167"/>
<path d="M151.976 40.8693H176.615" stroke="white" stroke-width="1.23167"/>
<path d="M151.976 44.679H176.615" stroke="white" stroke-width="1.23167"/>
<path d="M151.976 48.4888H176.615" stroke="white" stroke-width="1.23167"/>
<path d="M151.976 52.3012H176.615" stroke="white" stroke-width="1.23167"/>
<path d="M151.976 74.5571H176.615" stroke="white" stroke-width="1.23167"/>
<path d="M151.976 77.9199H176.615" stroke="white" stroke-width="1.23167"/>
<path d="M171.544 103.862C172.047 104.282 172.334 104.908 172.324 105.565L172.267 113.241C172.263 113.826 172.027 114.385 171.612 114.795C171.197 115.205 170.637 115.432 170.055 115.426L158.603 115.326C157.394 115.315 156.422 114.32 156.432 113.105L156.5 105.424C156.545 104.223 157.514 103.266 158.71 103.242L170.162 103.341C170.669 103.345 171.158 103.53 171.544 103.862Z" fill="white"/>
<path d="M169.806 105.077L164.409 109.771C164.267 109.894 164.057 109.894 163.915 109.771L158.421 104.978C158.297 104.872 158.253 104.697 158.312 104.544C158.372 104.391 158.522 104.293 158.684 104.302L169.575 104.4C169.731 104.405 169.868 104.508 169.92 104.658C169.971 104.808 169.926 104.974 169.806 105.077Z" fill="#3FBDF1"/>
<path fill-rule="evenodd" clip-rule="evenodd" d="M164.758 58.4392C162.422 58.4371 160.316 59.8416 159.42 61.9977C158.525 64.1538 159.018 66.6366 160.668 68.288C162.319 69.9394 164.803 70.434 166.961 69.5412C169.12 68.6483 170.527 66.5439 170.527 64.2096C170.528 62.6798 169.92 61.2125 168.838 60.1304C167.757 59.0482 166.289 58.4399 164.758 58.4392ZM164.758 68.5946C164.292 68.5946 163.914 68.2169 163.914 67.7509C163.914 67.285 164.292 66.9072 164.758 66.9072C165.225 66.9072 165.603 67.285 165.603 67.7509C165.603 68.2169 165.225 68.5946 164.758 68.5946ZM165.751 62.5905C165.773 62.4281 165.796 62.2663 165.819 62.1055V62.0951C165.831 62.0004 165.847 61.9016 165.864 61.8009C165.958 61.2315 166.062 60.5999 165.48 60.288C164.943 59.9781 163.992 60.0484 163.656 60.6447C163.351 61.1645 163.535 61.9625 163.685 62.6115C163.725 62.7884 163.764 62.9542 163.789 63.1002C163.927 64.0416 164.129 64.9724 164.393 65.8865C164.464 66.021 164.603 66.1052 164.755 66.1052C164.907 66.1052 165.047 66.021 165.118 65.8865C165.442 64.8288 165.599 63.6939 165.751 62.5905Z" fill="white"/>
<ellipse cx="129.768" cy="30.6419" rx="5.18502" ry="5.18188" fill="white"/>
<ellipse cx="164.717" cy="21.4864" rx="1.73268" ry="1.73163" fill="white"/>
<path d="M159.878 29.3165C159.878 26.6459 162.044 24.481 164.716 24.481C167.389 24.481 169.555 26.6459 169.555 29.3165H159.878Z" fill="white"/>
<path d="M131.392 194.837C131.39 195.643 130.888 196.363 130.133 196.644L111.986 203.415C111.986 203.415 111.121 201.811 109.612 199.131L99.2474 181.802C96.4465 196.202 93.3225 210.62 91.3865 219.606L89.521 228.553L96.9989 231.011C97.924 231.234 98.577 232.06 98.5804 233.011C98.5791 233.646 98.2857 234.246 97.7847 234.637C97.2838 235.027 96.6309 235.167 96.014 235.014L78.6819 230.623V226.389L78.2703 226.309L78.6272 176.919L61.6912 172.917C59.5677 173.578 57.3244 174.185 55.0315 174.677C55.0068 174.681 54.9824 174.686 54.9585 174.693C49.3934 176.151 43.5805 176.401 37.9105 175.427C37.861 175.427 37.8037 175.404 37.7568 175.393C37.3451 175.315 36.9334 175.224 36.5296 175.133C36.4071 175.11 36.2873 175.086 36.1648 175.052C35.8104 174.972 35.4561 174.867 35.1017 174.771C34.9063 174.714 34.7135 174.667 34.5285 174.61C34.3435 174.552 34.2054 174.505 34.0439 174.448C30.9922 173.491 28.1738 171.908 25.7687 169.8C23.9246 168.253 22.361 166.399 21.1465 164.321C20.6254 163.499 20.1381 162.634 19.6848 161.746C16.9333 156.317 16.3601 154.471 17.16 154.421C15.3985 153.801 13.692 153.034 12.0584 152.13C12.0584 152.13 8.45752 131.129 16.3106 109.992C16.1603 108.685 16.1875 107.363 16.3914 106.063C18.0459 94.2046 27.1522 82.0154 38.0173 77.0783C43.8381 74.4327 53.3301 70.3731 50.2634 62.2904C49.2941 59.7333 47.9184 57.5304 47.6578 54.8769C47.6344 54.6166 47.6031 54.3848 47.5849 54.127C47.1497 47.8775 50.7897 41.9431 56.6834 39.8052C60.5848 38.3372 64.9301 38.6219 68.6063 40.5864C69.2339 40.9175 69.797 41.3585 70.2687 41.8884C72.0613 41.9353 74.3125 42.2503 75.3703 42.7425C77.1629 43.581 78.5986 45.0496 79.6721 46.7031C81.6522 49.7852 82.4473 53.4802 81.9102 57.1033C81.6017 59.1083 80.8871 61.0293 79.8101 62.7487C79.2791 63.6102 78.6628 64.4163 77.9706 65.1548C77.3635 65.7901 76.5011 66.7172 75.6699 67.0583C75.689 67.0735 75.716 67.0735 75.7351 67.0583L75.4928 70.9304C80.4693 69.7976 93.7654 65.1313 103.513 45.8646C104.216 44.3726 104.941 42.8883 105.701 41.4197C107.953 37.0476 110.365 32.699 113.562 28.9389C114.344 28.0275 115.501 27.2047 116.744 27.6005C117.833 27.9468 118.567 29.1628 117.809 30.1836L112.577 37.3289L114.248 37.1127C114.616 37.2017 114.927 37.4484 115.096 37.7872C115.266 38.1259 115.278 38.5223 115.128 38.8704L114.07 41.3806L114.571 40.7921C115.286 39.9481 116.54 39.818 117.413 40.4972C118.286 41.1764 118.468 42.4231 117.825 43.3232L115.068 46.8828C114.699 47.3528 114.23 47.7352 113.695 48.0025L108.239 50.6325C109.853 52.6149 111.353 54.6866 112.734 56.8377C109.738 62.5763 106.226 68.0306 102.241 73.1333C95.5241 81.7811 85.8524 91.447 74.0441 95.4883C73.7835 102.636 72.5198 109.719 70.5579 116.648H88.4371L92.8925 104.498C93.312 103.35 94.4051 102.586 95.6283 102.587H113.437C113.747 102.588 114.054 102.648 114.341 102.764C115.234 103.132 115.817 104.001 115.819 104.967C115.816 105.256 115.761 105.543 115.657 105.813L114.477 108.88H114.438H109.417L107.374 114.729L107.955 113.253H110.467C111.266 113.252 112.012 113.652 112.454 114.316C112.897 114.981 112.977 115.823 112.669 116.56L110.529 121.674C109.219 124.803 106.401 127.049 103.057 127.629L102.83 127.668L102.411 128.908L102.627 128.48C102.556 128.65 102.476 128.835 102.403 129.038H108.036C108.036 129.038 106.785 132.683 104.485 132.902C104.299 132.916 104.112 132.91 103.927 132.884H92.2542C92.9082 133.61 93.6429 134.49 94.4272 135.524C97.8144 135.475 102.741 135.837 103.961 138.201C104.171 138.436 104.362 138.687 104.534 138.951C105 139.732 105.154 141.555 105.042 144.188C105.075 146.903 104.847 149.614 104.362 152.286C104.953 153.393 105.521 154.507 106.066 155.627C107.252 157.842 108.322 160.117 109.271 162.444C109.304 162.506 109.331 162.57 109.352 162.637C112.196 169.155 114.691 175.82 116.827 182.604L116.947 183.023C118.562 187.783 119.878 192.108 120.378 194.741L128.846 193.007C129.436 192.811 130.083 192.91 130.587 193.272C131.091 193.635 131.39 194.217 131.392 194.837Z" fill="white"/>
<path d="M102.058 129.454H107.689C107.458 130.089 107.164 130.7 106.812 131.276C106.116 132.365 105.043 133.502 103.624 133.31H86.5401C85.876 133.314 85.2292 133.098 84.7012 132.695C84.5844 132.154 84.6177 131.592 84.7976 131.068C91.6972 130.011 98.7661 128.873 101.928 128.22L102.525 128.116L102.058 129.454Z" fill="#3FBDF1"/>
<path d="M115.469 105.419C115.466 105.708 115.412 105.995 115.308 106.265L114.131 109.329H109.109L107.046 115.213L106.296 117.093H89.9287L93.721 106.767C94.1425 105.62 95.2354 104.857 96.4584 104.856H114.258C114.568 104.857 114.875 104.917 115.162 105.033C115.262 105.074 115.359 105.12 115.454 105.171C115.462 105.25 115.469 105.338 115.469 105.419Z" fill="#3FBDF1"/>
<path d="M115.472 105.416C115.469 105.706 115.414 105.992 115.311 106.262L114.131 109.327H109.112L110.857 104.594C111.255 103.51 112.373 102.868 113.51 103.071C114.646 103.274 115.474 104.262 115.472 105.416Z" fill="#3FBDF1"/>
<path d="M107.687 129.454C107.687 129.454 106.072 134.198 103.139 133.177C101.316 132.55 101.59 130.735 102.066 129.444L107.687 129.454Z" fill="#3FBDF1"/>
<path d="M103.457 109.201H95.2461" stroke="white" stroke-width="1.23167" stroke-linecap="round" stroke-linejoin="round"/>
<path d="M102.662 112.38H94.4512" stroke="white" stroke-width="1.23167" stroke-linecap="round" stroke-linejoin="round"/>
<path d="M109.037 162.684C107.619 159.257 105.965 155.934 104.087 152.736C104.847 148.709 105.366 141.653 103.717 138.451C102.497 136.085 97.5755 135.725 94.1779 135.775C91.5542 132.31 89.4334 130.524 89.4334 130.524C89.4334 130.524 73.639 133.08 70.033 133.101C66.427 133.122 66.4296 135.119 66.4296 135.119C66.4296 135.119 63.918 142.692 61.078 146.454C58.238 150.216 50.5988 154.785 39.5906 156.545C28.5825 158.305 19.9245 156.136 17.9391 155.032C15.9538 153.928 15.8886 154.993 19.4425 161.989C22.9964 168.984 28.4679 174.014 37.6574 175.672C43.3254 176.647 49.1368 176.397 54.6998 174.938C54.6998 174.938 69.2409 171.275 73.5061 168.481C77.7713 165.688 78.4383 169.486 78.4383 169.486L78.0214 226.548L89.277 228.792L99.0007 182.053L109.37 199.392L120.144 194.966C118.875 188.309 112.359 170.754 109.037 162.684Z" fill="#2E2E2E"/>
<path d="M79.5733 86.428C79.3441 88.0064 78.6739 89.4877 77.64 90.7008C76.8458 91.7175 75.8351 92.5439 74.6817 93.1197C74.411 93.2508 74.1296 93.3584 73.8406 93.4412C73.8406 92.5416 73.825 91.6263 73.7759 90.7345C73.5921 87.3925 72.9192 83.9131 70.7943 81.3437C69.7721 80.1161 68.4819 79.1404 67.0234 78.4918C67.0648 77.8747 67.1139 77.2628 67.1528 76.6458C67.2641 75.5906 67.2589 74.5263 67.1372 73.4723C67.0002 72.8327 66.9222 72.1817 66.9043 71.5278C66.9276 70.9185 66.8396 68.5799 67.321 68.0743C68.1242 68.4096 68.9847 68.5857 69.8548 68.5928C71.8037 68.5773 73.3514 67.3795 74.3944 65.8472C74.778 65.7216 75.1767 65.6483 75.5798 65.6294C76.76 65.8057 73.2375 68.9869 74.3867 68.6265C73.6387 68.8573 73.0926 69.9825 72.7406 70.6255C72.223 71.6211 71.9227 72.793 72.43 73.8456C72.9269 74.8516 73.9674 75.7176 74.705 76.5446C75.6995 77.5906 76.6295 78.6963 77.4899 79.8555C78.8512 81.7534 79.8451 84.0842 79.5733 86.428Z" fill="#3FBDF1"/>
<path d="M61.5142 77.0858C63.3797 77.2017 65.2096 77.6498 66.9176 78.4092C68.3846 79.0616 69.6824 80.0419 70.711 81.2747C72.8499 83.8589 73.5273 87.3522 73.7123 90.7101C73.7618 91.614 73.7852 92.5336 73.7774 93.4297C73.7383 101.38 72.4148 109.247 70.242 116.94H89.9122H106.289L107.04 115.062L107.639 113.551H110.166C110.965 113.551 111.712 113.951 112.155 114.616C112.598 115.282 112.679 116.125 112.37 116.862L110.231 121.978C108.917 125.107 106.1 127.352 102.756 127.933L102.53 127.975L101.933 128.079C98.7703 128.733 91.6994 129.871 84.7979 130.929C78.4852 131.906 72.3106 132.81 69.3901 133.229C68.2828 133.391 67.1521 133.511 66.0031 133.584C59.185 134.003 52.1454 132.487 50.3217 124.727C49.1337 119.756 49.3942 114.398 49.4489 109.224" stroke="black" stroke-width="1.23167"/>
<path d="M94.1558 136.032C98.5692 135.829 102.524 136.483 104.22 139.244C105.075 140.641 104.866 145.564 103.986 152.431" stroke="black" stroke-width="1.23167"/>
<path d="M20.2192 163.497C20.2288 163.509 20.2366 163.522 20.2427 163.536C22.1315 167.386 25.4533 170.71 29.7026 173.037C44.6754 181.227 67.1958 171.63 75.2958 167.637C75.953 167.313 76.7306 167.352 77.3521 167.74C77.9735 168.127 78.3506 168.808 78.3492 169.541V230.96L95.6772 235.349C96.2194 235.488 96.7949 235.4 97.2705 235.105C97.7461 234.81 98.0806 234.334 98.1966 233.786C98.4342 232.691 97.7521 231.607 96.6621 231.348L89.1874 228.886C89.5339 226.458 94.6038 204.255 98.913 182.118" stroke="black" stroke-width="1.23167"/>
<path d="M89.0233 130.265C93.4523 134.016 96.6334 139.784 99.6113 144.684C106.867 156.622 112.294 169.616 116.509 182.912C117.783 186.929 118.956 190.988 120.063 195.047L128.525 193.309C129.524 192.984 130.599 193.517 130.947 194.508C131.294 195.499 130.787 196.586 129.804 196.956L111.658 203.729C111.658 203.729 106.349 193.812 98.9287 182.107C88.0541 164.935 67.9592 138.468 62.6548 144.113" stroke="black" stroke-width="1.23167"/>
<path d="M73.1929 71.5006C73.1929 71.5006 90.9872 70.2684 103.185 46.1225C103.185 46.1225 107.041 48.7822 112.416 57.1026C112.416 57.1026 97.3364 87.7039 73.7113 95.7795" stroke="black" stroke-width="1.23167"/>
<path d="M71.6719 43.3799L72.7015 44.9651L73.3219 45.9297C73.9512 47.4146 74.5045 48.9314 74.9797 50.474L75.0106 50.5835L76.1895 55.146C76.1915 55.151 76.1915 55.1566 76.1895 55.1616C76.5858 55.8221 77.1321 56.3772 77.7829 56.7807C77.9368 56.8648 78.0803 56.9672 78.2102 57.0857C78.9181 57.8053 77.0519 58.0138 76.6657 58.2511C76.32 58.4915 76.1115 58.8874 76.1072 59.3122C73.8908 68.6536 75.3169 66.2003 74.3644 68.2782C75.1908 67.569 77.2449 65.3138 77.2449 65.3138C77.5023 65.1444 77.7443 64.636 77.9116 64.3831C78.4431 63.5571 78.9006 62.6845 79.2785 61.7759C80.4531 59.0622 80.7242 56.035 80.0508 53.1515C78.9876 48.6698 76.5087 44.1856 71.6719 43.3799L71.6719 43.3799Z" fill="#3FBDF1"/>
<path d="M71.3434 46.0443C71.1529 47.0141 70.6941 47.9106 70.0195 48.6313C69.2869 49.4343 68.434 50.1179 67.4914 50.6575C65.7175 51.7163 63.7434 52.5169 62.253 53.946C60.7607 55.3847 59.8676 57.3369 59.7535 59.4094C59.6494 61.5321 60.4063 63.7305 60.8667 65.7177C62.3258 72.1408 61.8577 78.3135 61.0514 84.7782C60.2867 90.8779 58.6585 96.8472 55.5009 102.157C51.7763 108.416 45.6614 113.425 38.7792 115.996C33.057 118.137 21.9379 120.036 17.7321 114.08C17.0064 112.199 16.9986 110.048 17.2795 108.022C18.9311 96.1353 28.0216 83.9359 38.8676 78.9915C44.6782 76.3419 54.1536 72.2711 51.0922 64.1739C50.1169 61.6208 48.7513 59.4172 48.4912 56.7494C48.4678 56.5069 48.4444 56.2644 48.421 56.0062C47.9841 49.7474 51.6176 43.8068 57.501 41.6632C61.395 40.1888 65.7345 40.474 69.4031 42.4455C70.0468 42.7891 70.6231 43.2468 71.1041 43.7964C71.1371 43.8336 71.1667 43.8738 71.1926 43.9163C71.2291 44.0087 71.2587 44.1037 71.281 44.2006C71.4247 44.8048 71.4459 45.4317 71.3434 46.0443Z" fill="#3FBDF1"/>
<path d="M73.74 93.3115C76.8883 92.5847 79.6509 90.3312 80.4405 87.0382C81.1755 83.9876 80.0131 80.8562 78.2122 78.4021C76.5417 76.1356 73.0624 74.2338 73.336 71.019C73.4247 69.9769 73.9407 69.0651 74.6131 68.2575C74.8555 67.9761 75.1057 67.7156 75.3793 67.4499" stroke="black" stroke-width="1.0595"/>
<path d="M67.2482 68.023L67.1023 78.66" stroke="black" stroke-width="1.0595"/>
<path fill-rule="evenodd" clip-rule="evenodd" d="M49.8908 62.6902C48.9186 60.1371 47.5452 57.9357 47.2846 55.2732C47.2585 55.0284 47.235 54.7835 47.2168 54.5229C46.7764 48.2705 50.4198 42.3385 56.3124 40.1945C60.2152 38.7228 64.5637 39.0077 68.241 40.976C68.8844 41.3205 69.46 41.7786 69.9402 42.3281L70.0627 42.4766C70.9237 43.5284 71.2877 44.901 71.0609 46.2411C70.8712 47.2071 70.4143 48.1006 69.7421 48.8202C69.0055 49.6239 68.1493 50.3093 67.2037 50.8522C65.4263 51.9099 63.4508 52.7045 61.9522 54.1322C60.4562 55.5734 59.5637 57.529 59.4555 59.603C59.3486 61.7237 60.1096 63.9172 60.5631 65.9076C62.0252 72.3241 61.5587 78.488 60.7508 84.9436C59.9846 91.0372 58.3557 97.003 55.1865 102.307C51.4545 108.56 45.3299 113.567 38.4313 116.133C32.5856 118.311 21.1236 120.239 17.097 113.864C15.7444 111.725 15.6558 109.018 16.005 106.512C17.6599 94.6401 26.7738 82.4479 37.6364 77.5111C43.4691 74.8329 52.9635 70.7767 49.8908 62.6902Z" stroke="black" stroke-width="1.0595"/>
<circle cx="72.4667" cy="54.5047" r="1.0595" fill="black"/>
<path d="M72.1439 51.2052C72.1439 51.2052 68.7139 52.7515 69.7999 55.7581" stroke="black" stroke-width="1.0595"/>
<path d="M75.3133 67.5009C76.1728 67.1885 77.0895 66.1993 77.7146 65.5512C78.4058 64.8139 79.0234 64.0109 79.5585 63.1537C82.6353 58.2329 82.5794 51.9756 79.4152 47.1104C78.3422 45.4548 76.9124 43.9867 75.1206 43.1537C73.6271 42.4504 71.9559 42.2145 70.3259 42.4768C71.2368 43.2201 72.0536 44.0716 72.7584 45.0123C73.8201 46.4049 74.5633 48.0132 74.9357 49.724C74.993 50.0234 75.0425 50.3201 75.0946 50.6221C75.355 52.2308 75.5008 53.8604 76.29 55.1776C76.6925 55.8426 77.2478 56.4022 77.9099 56.8098C78.0656 56.8938 78.2108 56.996 78.3422 57.1143C79.0584 57.8328 77.1703 58.0385 76.7796 58.2754C75.7769 58.8611 76.1493 60.5427 76.0165 61.5163C75.8563 62.6527 75.5161 63.7564 75.0086 64.7858C74.8289 65.1516 74.6244 65.5047 74.3966 65.8427C73.3548 67.3864 71.7922 68.5942 69.8285 68.6046C68.9547 68.5968 68.0906 68.42 67.284 68.084C65.9004 67.5221 64.6633 66.6523 63.6665 65.5407" stroke="black" stroke-width="1.0595"/>
<path d="M73.4277 62.115C73.4277 62.115 71.0655 63.4608 70.042 60.3631" stroke="black" stroke-width="1.0595"/>
<path d="M107.535 51.2702L113.421 48.4276C113.959 48.1683 114.429 47.7867 114.793 47.3135L117.541 43.7497C118.199 42.8503 118.023 41.5912 117.143 40.9064C116.264 40.2217 114.999 40.3592 114.288 41.2169L113.785 41.8026L114.845 39.2958C114.991 38.9471 114.978 38.5523 114.809 38.2141C114.641 37.8758 114.334 37.6274 113.968 37.5334L112.293 37.7547L117.528 30.6091C118.27 29.5964 117.549 28.3729 116.463 28.0267C115.212 27.6284 114.056 28.451 113.28 29.3621C110.087 33.1211 107.668 37.4684 105.42 41.8416C104.665 43.3116 103.936 44.7936 103.235 46.2878" stroke="black" stroke-width="1.0595" stroke-linejoin="round"/>
<path d="M112.296 37.7548C112.296 37.7548 108.881 42.0005 113.788 41.8027" stroke="black" stroke-width="1.0595"/>
<path d="M102.789 128.037C102.789 128.037 100.258 132.142 103.206 133.15C106.154 134.157 107.766 129.419 107.766 129.419H102.076" stroke="black" stroke-width="1.0595"/>
<path d="M103.696 133.27H91.9551" stroke="black" stroke-width="1.0595"/>
<path fill-rule="evenodd" clip-rule="evenodd" d="M115.548 105.382C115.545 105.671 115.49 105.958 115.387 106.228L114.21 109.292H109.191L110.933 104.559C111.331 103.476 112.449 102.834 113.586 103.037C114.722 103.24 115.549 104.228 115.548 105.382V105.382Z" stroke="black" stroke-width="1.0595"/>
<path d="M91.0435 109.292L88.1787 117.052L92.6244 104.913C93.0459 103.764 94.1418 103 95.3668 103.003H113.165" stroke="black" stroke-width="1.0595"/>
<path d="M106.342 117.052L109.191 109.292" stroke="black" stroke-width="1.0595"/>
<path d="M16.0866 110.39C8.23434 131.52 11.8336 152.52 11.8336 152.52C23.694 159.116 40.5105 158.544 52.5558 152.746C56.8166 150.69 61.4108 147.592 63.2703 143.052C64.635 139.728 66.0544 136.43 67.2238 133.059" stroke="black" stroke-width="1.0595"/>
<path d="M9.31543 176.318H78.4177" stroke="black" stroke-width="1.0595"/>
<path d="M70.3074 117.06L69.5625 119.577" stroke="black" stroke-width="1.0595"/>
<path d="M20.3216 163.617C20.3216 163.617 17.2797 158.192 16.29 154.581" stroke="black" stroke-width="1.0595"/>
<path fill-rule="evenodd" clip-rule="evenodd" d="M35.3354 10.3097V64.2938H15.042C15.7105 62.1575 16.2704 59.9969 16.7218 57.812C18.1074 51.0855 18.5189 44.1403 18.3027 37.1248C17.899 23.6639 23.3943 16.2527 30.6944 12.3089C32.1792 11.5067 33.7323 10.8376 35.3354 10.3097V10.3097Z" stroke="#CCDDE2" stroke-width="1.0595"/>
<path fill-rule="evenodd" clip-rule="evenodd" d="M30.6947 12.309V57.812H16.7144C18.0999 51.0855 18.5114 44.1403 18.2952 37.1248C17.8994 23.6639 23.3946 16.2579 30.6947 12.309Z" stroke="#CCDDE2" stroke-width="1.0595"/>
</svg>
