<svg width="494" height="319" viewBox="0 0 494 319" fill="none" xmlns="http://www.w3.org/2000/svg">
<circle cx="427.835" cy="32.976" r="7.33953" fill="#D7E8F0"/>
<circle cx="448.109" cy="35.6131" r="5.97733" fill="#D7E8F0"/>
<path d="M335.205 153.972C335.205 153.972 334.159 150.97 337.238 150.403C340.316 149.836 344.158 146.703 345.885 153.972C347.612 161.241 356.93 196.565 355.028 201.872C353.127 207.179 344.261 216.099 344.131 214.176C344 212.252 342.807 189.76 340.404 180.747C338.001 171.735 335.205 153.972 335.205 153.972Z" fill="#D7E8F0"/>
<path d="M323.261 119.645C323.594 119.901 324.863 125.938 329.517 126.559C334.17 127.18 337.87 125.469 334.753 119.388C331.636 113.308 329.43 104.519 327.762 108.943C326.733 111.595 324.594 113.663 321.91 114.604L323.261 119.645Z" fill="#D7E8F0"/>
<path d="M314.56 85.0937L314.434 85.219C313.889 85.8456 313.437 86.6139 312.734 87.1097C310.827 88.4556 306.888 88.7117 305.013 87.9761C304.937 87.8944 304.855 87.8126 304.79 87.7363C303.989 86.8373 303.155 85.9437 302.305 85.0119C279.965 60.9555 237.552 29.8319 177.054 27.7995V23.7947H177.795C224.736 23.7947 276.374 49.039 310.745 81.3449C311.737 82.2712 312.714 83.2048 313.677 84.1456C313.955 84.4671 314.271 84.7722 314.56 85.0937V85.0937Z" fill="#D7E8F0"/>
<path d="M158.217 316.254C156.806 315.376 155.395 314.445 154.021 313.529" stroke="black" stroke-width="2.04608"/>
<path d="M486.049 278.096L433.196 315.289C433.13 315.256 433.07 315.207 433.005 315.175C429.289 312.903 427.605 309.181 424.516 306.32C421.568 303.596 417.694 301.547 413.591 301.547C409.806 301.51 406.14 302.868 403.293 305.361C400.732 307.699 399.097 310.87 396.563 313.24C393.687 315.992 389.864 317.535 385.884 317.55C380.414 317.554 375.324 314.755 372.398 310.135L371.69 308.952C368.76 304.335 363.672 301.537 358.204 301.537C352.736 301.537 347.647 304.335 344.718 308.952L344.015 310.135C341.096 314.747 336.021 317.549 330.562 317.561C326.585 317.545 322.766 316.002 319.893 313.251C317.349 310.881 315.731 307.71 313.148 305.372C310.302 302.877 306.635 301.519 302.85 301.558C298.768 301.558 294.889 303.591 291.952 306.331C288.862 309.197 287.184 312.913 283.468 315.186C278.399 318.367 271.956 318.367 266.887 315.186C263.171 312.913 261.488 309.192 258.398 306.331C255.45 303.607 251.576 301.558 247.501 301.558C243.716 301.522 240.051 302.88 237.202 305.372C234.641 307.71 233.007 310.881 230.479 313.251C227.6 316.003 223.776 317.545 219.794 317.561C214.324 317.565 209.234 314.766 206.308 310.145L205.605 308.963C202.674 304.346 197.585 301.548 192.116 301.548C186.647 301.548 181.558 304.346 178.628 308.963L177.925 310.145C174.536 315.85 167.267 318.493 160.903 317.044C153.111 315.256 151.09 307.503 144.791 303.814C143.031 302.79 141.02 302.277 139.157 301.455C133.316 298.91 129.436 293.527 124.821 289.364L138.345 301.575C137.064 300.419 136.258 296.671 135.375 295.036C134.048 292.61 132.519 290.301 130.804 288.132C127.366 283.773 123.688 279.708 120.244 275.333C112.419 265.394 104.486 255.543 96.6724 245.594C91.3925 238.87 86.1671 232.102 81.0671 225.237C77.3946 220.284 69.0797 211.522 74.5285 205.109C75.6815 203.867 77.2499 203.092 78.9366 202.929C86.3034 201.938 94.9234 204.352 102.247 205.245C119.241 207.332 136.22 209.528 153.209 211.642C175.942 214.454 198.701 217.254 221.395 220.573L225.242 221.156L226.588 221.363C227.264 221.477 227.776 221.575 228.108 221.619L228.528 221.684C228.555 221.688 228.583 221.688 228.61 221.684L482.584 262.992C485.939 263.541 488.63 266.065 489.39 269.38C490.15 272.694 488.83 276.139 486.049 278.096V278.096Z" fill="#3FBDF1"/>
<path d="M433.229 315.295L486.049 278.101C488.835 276.147 490.16 272.7 489.399 269.383C488.638 266.066 485.943 263.541 482.584 262.997L70.4692 195.977C63.0207 194.778 57.8934 203.251 62.4431 209.288L110.976 273.791C119.065 283.973 128.174 293.303 138.16 301.634" stroke="black" stroke-width="2.04608"/>
<path d="M457.346 301.553C457.372 307.344 454.253 312.693 449.201 315.524C444.149 318.355 437.959 318.221 433.033 315.175C429.317 312.897 427.639 309.181 424.544 306.31C421.596 303.585 417.733 301.542 413.646 301.542C409.862 301.506 406.196 302.863 403.348 305.356C400.782 307.699 399.147 310.865 396.613 313.235C393.735 315.983 389.913 317.524 385.934 317.539C380.465 317.54 375.376 314.742 372.448 310.124L371.745 308.941C368.816 304.324 363.728 301.526 358.259 301.526C352.791 301.526 347.703 304.324 344.774 308.941L344.065 310.124C341.142 314.76 336.044 317.57 330.563 317.567C326.585 317.55 322.765 316.009 319.889 313.262C317.35 310.892 315.721 307.726 313.154 305.383C310.306 302.891 306.64 301.533 302.856 301.569C298.758 301.569 294.89 303.596 291.958 306.337C288.863 309.208 287.185 312.924 283.469 315.202C278.394 318.376 271.953 318.376 266.877 315.202C263.161 312.924 261.483 309.208 258.394 306.337C255.446 303.612 251.577 301.569 247.496 301.569C243.712 301.533 240.046 302.891 237.198 305.383C234.631 307.726 233.002 310.892 230.463 313.262C227.587 316.009 223.767 317.55 219.789 317.567C214.319 317.571 209.229 314.772 206.303 310.151L205.595 308.969C202.666 304.351 197.577 301.553 192.109 301.553C186.641 301.553 181.553 304.351 178.623 308.969L177.92 310.151C174.992 314.769 169.903 317.568 164.435 317.567C160.455 317.551 156.633 316.011 153.755 313.262C151.221 310.892 149.587 307.726 147.02 305.383C144.172 302.891 140.507 301.533 136.722 301.569C132.625 301.569 128.761 303.596 125.824 306.337C122.729 309.208 121.051 312.924 117.335 315.202C112.41 318.248 106.219 318.382 101.167 315.551C96.1149 312.72 92.9965 307.371 93.0226 301.58" stroke="black" stroke-width="2.04608"/>
<path d="M345.067 150.703C349.247 166.913 352.211 183.537 355.524 199.742" stroke="black" stroke-width="2.04608" stroke-linecap="round" stroke-linejoin="round"/>
<path d="M2 317.561V198.81C2 102.165 80.3537 23.811 176.999 23.811C223.946 23.811 275.584 49.0553 309.95 81.3613C310.941 82.2876 311.919 83.2211 312.881 84.1619C313.181 84.4671 313.502 84.7722 313.791 85.0937" stroke="black" stroke-width="2.04608" stroke-linecap="round" stroke-linejoin="round"/>
<path d="M327.064 103.445C329.909 108.623 332.475 113.948 334.753 119.399C334.911 119.803 335.091 120.184 335.249 120.587C335.793 121.9 336.338 123.214 336.818 124.543" stroke="black" stroke-width="2.04608" stroke-linecap="round" stroke-linejoin="round"/>
<path d="M418.43 71.6624C418.43 71.6624 411.505 84.5215 428.053 85.5895C444.601 86.6575 455.395 73.4932 455.395 73.4932" stroke="black" stroke-width="2.04608" stroke-linecap="round" stroke-linejoin="round"/>
<path d="M387.159 180.126C389.644 181.183 392.172 182.224 394.75 183.199C388.508 181.661 381.983 181.689 375.755 183.281C374.698 183.57 366.023 187.226 364.857 187.052C365.026 183.238 366.552 169.686 367.582 167.436C372.044 169.572 383.699 178.65 387.159 180.126V180.126Z" fill="#2E2E2E"/>
<path d="M488.834 138.715L483.723 152.637C483.723 152.637 471.103 123.758 442.857 135.201C442.857 135.201 438.411 152.294 414.986 147.679C390.837 142.927 376.965 136.972 377.553 133.724C378.191 130.232 381.411 123.677 382.157 124.173C383.579 120.215 385.39 116.407 387.562 112.806C388.516 111.232 388.576 112.806 388.625 111.717C389.377 95.4846 374.861 92.1009 374.861 92.1009C387.132 80.5222 402.525 73.4878 418.239 70.8506C433.954 68.2134 413.096 81.6664 421.743 84.2274C430.39 86.7883 440.198 87.3169 457.623 72.9375C457.634 72.9702 505.605 82.6908 488.834 138.715V138.715Z" fill="#2E2E2E"/>
<path d="M477.272 164.118C475.943 170.978 462.424 236.756 429.672 250.372C435.742 221.33 413.734 197.628 413.734 197.628C409.822 191.236 404.939 187.346 399.976 185.096C421.226 192.255 444.53 194.549 463.367 179.363C468.728 174.994 473.414 169.857 477.272 164.118V164.118Z" fill="#2E2E2E"/>
<path d="M418.697 205.142C413.412 196.424 406.829 186.992 394.799 183.516C381.874 179.767 367.108 183.134 360.346 192.779C354.837 200.658 349.726 208.749 344.283 216.693C342.697 219.031 341.062 221.368 339.379 223.673C337.265 226.621 335.134 229.553 333.02 232.484C331.691 234.326 330.377 236.167 329.048 237.993" stroke="black" stroke-width="2.04608"/>
<path d="M364.013 188.785C360.23 186.666 356.296 184.83 352.243 183.292" stroke="black" stroke-width="2.04608"/>
<path d="M241.747 223.831C250.204 217.473 258.676 211.114 266.991 204.548C281.115 193.416 294.906 181.32 313.47 178.584C322.423 177.312 331.533 177.692 340.349 179.707" stroke="black" stroke-width="2.04608"/>
<path d="M477.386 163.469C477.386 163.469 461.372 251.702 418.239 252.797" stroke="black" stroke-width="2.04608"/>
<path d="M402.378 238.984L395.752 248.879" stroke="black" stroke-width="2.04608"/>
<path d="M301.281 233.525C301.085 233.492 304.414 231.568 308.457 229.285C316.456 224.764 326.482 226.081 333.042 232.517" stroke="black" stroke-width="2.04608"/>
<path d="M321.3 114.833C322.308 117.111 324.193 121.138 325.223 123.655" stroke="black" stroke-width="2.04608" stroke-linecap="round" stroke-linejoin="round"/>
<path d="M344.283 216.721C343.051 193.558 338.736 165.867 334.377 150.828" stroke="black" stroke-width="2.04608" stroke-linecap="round" stroke-linejoin="round"/>
<path d="M376.72 133.746C380.249 125.699 384.483 117.979 389.372 110.676" stroke="black" stroke-width="2.04608" stroke-linecap="round" stroke-linejoin="round"/>
<path d="M367.179 166.505C365.61 174.678 364.373 181.892 363.621 187.695" stroke="black" stroke-width="2.04608" stroke-linecap="round" stroke-linejoin="round"/>
<path d="M425.072 70.0063C422.784 70.2134 420.504 70.5058 418.234 70.8836C402.52 73.5263 387.127 80.5607 374.856 92.1339C371.836 94.976 369.049 98.0573 366.525 101.348C363.593 105.129 360.869 111.842 355.6 112.719C349.737 113.684 344.98 107.886 341.717 103.882C336.491 97.4737 331.222 91.115 326.275 84.4838C324.03 81.4706 321.916 77.711 317.943 76.7956C314.74 76.06 311.122 78.3648 308.626 80.1248" stroke="black" stroke-width="2.04608" stroke-linecap="round" stroke-linejoin="round"/>
<path d="M324.798 105.772C326.874 105.069 327.343 107.543 327.343 107.543C327.593 109.609 326.702 111.647 325.016 112.867C322.265 115.046 318.516 115.814 315.072 115.694C313.438 115.64 311.329 115.297 310.299 113.907C309.269 112.518 309.209 110.589 309.515 108.894" stroke="black" stroke-width="2.04608" stroke-linecap="round" stroke-linejoin="round"/>
<path d="M300.219 83.917C298.065 85.1448 296.516 87.2103 295.941 89.6219C295.386 91.6632 296.451 93.7961 298.415 94.5803C303.261 96.8246 308.759 97.2256 313.879 95.7082C316.603 94.8964 318.341 93.1636 320.216 91.1694C321.038 90.2868 321.467 89.1088 321.405 87.9045C321.343 86.7001 320.796 85.5721 319.889 84.7779C318.804 83.8521 317.347 83.4908 315.955 83.8026C315.432 83.9322 314.941 84.1657 314.511 84.4892C314.201 84.6973 313.916 84.9405 313.661 85.2138C313.171 85.9077 312.603 86.5422 311.966 87.1046C309.602 88.7828 304.027 88.7665 303.303 87.2517" stroke="black" stroke-width="2.04608" stroke-linecap="round" stroke-linejoin="round"/>
<path d="M321.36 88.6521C322.78 89.1225 323.981 90.0901 324.744 91.3765C327.022 95.6102 322.178 99.7404 318.712 101.07C314.664 102.617 310.283 102.601 306.033 102.16C304.038 101.958 301.625 101.996 300.143 100.422C298.964 99.1916 298.508 97.4382 298.938 95.79C299.016 95.5054 299.132 95.2324 299.282 94.9782" stroke="black" stroke-width="2.04608" stroke-linecap="round" stroke-linejoin="round"/>
<path d="M324.934 95.5286C324.934 95.5286 328.334 97.027 327.996 100.629C327.604 104.808 323.637 106.938 319.981 107.935C316.697 108.781 313.302 109.112 309.917 108.916C309.022 108.898 308.132 108.777 307.264 108.557C304.61 107.81 302.469 104.96 303.123 102.16C303.123 102.067 303.172 101.969 303.199 101.876" stroke="black" stroke-width="2.04608" stroke-linecap="round" stroke-linejoin="round"/>
<path d="M333.113 115.64C335.881 114.705 338.821 114.396 341.722 114.736C344.778 115.003 347.733 115.967 350.359 117.553C353.083 119.334 355.541 121.71 358.216 123.606C363.899 127.655 369.92 131.011 376.083 134.253C389.988 141.56 413.134 148.077 420.55 147.832L421.498 147.788C426.947 147.483 432.396 145.963 436.722 142.59C440.004 139.997 442.527 136.568 444.024 132.662C445.238 129.643 445.838 126.413 445.789 123.159C445.762 122.13 445.789 120.021 444.819 119.345" stroke="black" stroke-width="2.04608" stroke-linecap="round" stroke-linejoin="round"/>
<path d="M335.249 120.587C338.132 120.587 337.974 124.173 335.919 125.344C335.582 125.531 335.228 125.686 334.862 125.807L334.514 125.905" stroke="black" stroke-width="2.04608" stroke-linecap="round" stroke-linejoin="round"/>
<path d="M455.341 72.9705C457.133 73.45 458.926 73.9948 460.719 74.6051L461.329 74.8013C470.248 77.809 479.473 82.4895 485.004 90.4175C490.605 98.4872 492.545 108.469 492.087 118.174C491.03 141.015 481.419 164.701 463.35 179.293C452.796 187.809 439.555 191.226 426.14 190.485C419.509 190.053 412.943 188.906 406.557 187.063C399.708 185.156 392.816 182.878 386.441 179.707C384.414 178.699 382.425 177.604 380.496 176.438C374.006 172.466 368.154 167.567 362.515 162.467C359.867 160.059 357.153 157.672 354.587 155.187C352.407 153.09 350.141 150.867 347.215 149.897C346.071 149.522 344.87 149.356 343.667 149.406C339.935 149.581 336.393 151.09 332.617 150.594C321.867 149.199 318.091 139.075 316.614 129.627C316.216 127.05 316.069 123.508 318.761 122.064C319.24 121.8 319.741 121.579 320.259 121.405C322.056 120.858 323.993 121.624 324.929 123.252C326.353 125.961 329.466 127.319 332.421 126.521L334.475 125.976L334.824 125.878" stroke="black" stroke-width="2.04608" stroke-linecap="round" stroke-linejoin="round"/>
<path d="M304.245 88.009L304.005 87.7366C303.204 86.8375 302.371 85.9439 301.521 85.0122C279.181 60.9557 236.762 29.8322 176.264 27.7998V23.7786" stroke="black" stroke-width="2.04608"/>
<path d="M460.413 25.3095V25.2604C459.859 21.9633 458.253 18.9338 455.836 16.6241C452.098 13.1914 446.774 12.1397 441.99 12.0362C438.146 11.966 434.443 13.4815 431.752 16.2263C429.665 13.709 430.994 10.4125 430.994 10.4125C432.629 6.68548 435.354 5.27969 438.623 5.29059C446.949 5.31783 458.511 14.6952 462.483 18.1825C463.066 18.6892 463.48 19.0761 463.704 19.2722C466.079 21.5335 462.81 34.0984 460.413 25.3095V25.3095Z" fill="#3FBDF1"/>
<path d="M438.607 5.29072C441.626 2.83876 447.059 0.157949 454.229 3.73236C462.304 7.76447 462.838 14.5918 462.468 18.1826L438.607 5.29072Z" fill="#3FBDF1"/>
<path d="M443.793 60.5743C443.793 60.5743 423.088 66.6442 424.99 40.9041C425.456 35.3978 426.332 29.9339 427.61 24.5577C427.747 24.0128 427.872 23.468 428.008 22.8849C428.61 20.3789 429.883 18.0843 431.692 16.2483" stroke="black" stroke-width="2.04608" stroke-linecap="round" stroke-linejoin="round"/>
<path d="M460.352 25.2605V25.3095C461.73 32.2894 459.584 39.5636 459.437 40.0213" stroke="black" stroke-width="2.04608" stroke-linecap="round" stroke-linejoin="round"/>
<path d="M459.437 40.092C461.617 37.2205 466.232 39.8795 464.695 43.1434C463.093 46.5489 458.157 49.8072 458.157 49.8072L455.078 74.098" stroke="black" stroke-width="2.04608" stroke-linecap="round" stroke-linejoin="round"/>
<path d="M429.67 59.7515L424.298 75.6892" stroke="black" stroke-width="2.04608" stroke-linecap="round" stroke-linejoin="round"/>
<path fill-rule="evenodd" clip-rule="evenodd" d="M448.594 47.0121C449.586 45.9714 450.719 50.7663 450.774 51.2676C450.844 52.7443 449.935 53.2455 448.594 53.5616C444.893 54.3795 441.019 53.7497 437.767 51.8016C437.222 51.4747 436.133 50.8862 436.105 50.167C439.952 50.4013 445.232 50.0308 448.245 47.3772C448.354 47.2464 448.48 47.132 448.594 47.0121Z" stroke="black" stroke-width="2.04608"/>
<path d="M444.872 35.2374C446.262 35.0486 447.668 35.443 448.757 36.3272" stroke="black" stroke-width="2.04608" stroke-linecap="round" stroke-linejoin="round"/>
<path d="M429.463 33.0087C430.853 32.8198 432.259 33.2142 433.348 34.0984" stroke="black" stroke-width="2.04608" stroke-linecap="round" stroke-linejoin="round"/>
<path d="M460.353 25.2605C457.928 16.5424 446.497 20.1822 437.294 18.8418C434.368 18.4168 432.657 17.4088 431.692 16.2264C434.384 13.4815 438.087 11.966 441.931 12.0363C446.715 12.1398 452.038 13.1914 455.776 16.6242C458.193 18.9338 459.799 21.9634 460.353 25.2605V25.2605Z" fill="black"/>
<path fill-rule="evenodd" clip-rule="evenodd" d="M460.365 25.3095V25.2604C459.811 21.9633 458.205 18.9338 455.788 16.6241C452.05 13.1914 446.726 12.1397 441.942 12.0362C438.099 11.966 434.396 13.4815 431.704 16.2263C429.617 13.709 430.947 10.4125 430.947 10.4125C432.581 6.68548 435.306 5.27969 438.575 5.29059C446.901 5.31783 458.463 14.6952 462.435 18.1825C463.018 18.6892 463.432 19.0761 463.656 19.2722C466.031 21.5335 462.762 34.0984 460.365 25.3095Z" stroke="black" stroke-width="2.224"/>
<path d="M438.559 5.29048C441.577 2.83852 447.01 0.157705 454.18 3.73212C462.255 7.76423 462.789 14.5916 462.419 18.1823" stroke="black" stroke-width="2.224"/>
<circle cx="448.11" cy="35.6131" r="8.42929" stroke="black" stroke-width="2.224"/>
<circle cx="427.835" cy="32.976" r="7.33953" stroke="white" stroke-width="0.556"/>
<circle cx="427.835" cy="32.9759" r="8.42929" stroke="black" stroke-width="2.224"/>
<path d="M439.811 34.1583L436.232 33.6897L434.068 43.6283L437.795 43.6665" stroke="black" stroke-width="2.224"/>
<path d="M462.881 28.1047C463.757 31.6732 463.598 35.4173 462.423 38.8988C462.423 38.8988 459.268 40.7296 460.211 37.2151C461.154 33.7007 460.756 28.2246 460.756 28.2246L462.881 28.1047Z" fill="black"/>
<path d="M399.974 185.068C398.209 184.48 396.482 183.853 394.749 183.21C396.542 183.676 398.29 184.298 399.974 185.068V185.068Z" fill="#2E2E2E"/>
<path d="M225.242 221.156L226.588 221.363C226.207 221.314 225.738 221.237 225.242 221.156Z" fill="#3FBDF1"/>
<path d="M228.527 221.684L228.108 221.619L228.527 221.684Z" fill="#3FBDF1"/>
</svg>
